<svg width="100" height="100" viewBox="0 0 100 100" fill="none" xmlns="http://www.w3.org/2000/svg">
<path d="M49.8161 85.3234C50.3179 85.3234 50.7494 85.388 51.1103 85.5171C51.4713 85.6433 51.7721 85.8106 52.0128 86.019C52.2505 86.2244 52.4398 86.4445 52.5807 86.6793L51.7531 87.2604C51.6592 87.1372 51.5403 86.9963 51.3965 86.8378C51.2527 86.6764 51.0561 86.537 50.8066 86.4196C50.5542 86.2993 50.224 86.2391 49.8161 86.2391C49.2702 86.2391 48.8197 86.3712 48.4646 86.6353C48.1095 86.8994 47.9319 87.3133 47.9319 87.8767V89.2502H48.02C48.0963 89.127 48.2049 88.9744 48.3457 88.7924C48.4837 88.6134 48.6832 88.4534 48.9444 88.3126C49.2027 88.1746 49.552 88.1057 49.9922 88.1057C50.5381 88.1057 51.0282 88.2348 51.4625 88.4931C51.8939 88.7513 52.2358 89.127 52.4882 89.62C52.7377 90.1131 52.8624 90.7118 52.8624 91.4161C52.8624 92.1088 52.7406 92.7119 52.497 93.2255C52.2535 93.742 51.9145 94.1411 51.4801 94.4229C51.0458 94.7075 50.5439 94.8499 49.9746 94.8499C49.5343 94.8499 49.1851 94.7765 48.9268 94.6298C48.6656 94.486 48.4661 94.3216 48.3281 94.1367C48.1873 93.9548 48.0787 93.8051 48.0024 93.6877H47.8967V94.7618H46.893V87.8063C46.893 87.2252 47.0251 86.7527 47.2892 86.3888C47.5504 86.0219 47.9026 85.7534 48.3457 85.5832C48.786 85.41 49.2761 85.3234 49.8161 85.3234ZM49.8513 89.0389C49.4346 89.0389 49.0824 89.1343 48.7948 89.3251C48.5072 89.5158 48.2885 89.7902 48.1388 90.1483C47.9892 90.5063 47.9143 90.9348 47.9143 91.4337C47.9143 91.9209 47.9877 92.3509 48.1344 92.7236C48.2812 93.0963 48.4984 93.3883 48.786 93.5996C49.0736 93.811 49.4287 93.9166 49.8513 93.9166C50.2915 93.9166 50.6584 93.8051 50.9519 93.582C51.2424 93.359 51.4611 93.0596 51.6078 92.684C51.7516 92.3083 51.8235 91.8916 51.8235 91.4337C51.8235 90.9642 51.7501 90.5489 51.6034 90.1879C51.4537 89.8299 51.2336 89.5481 50.9431 89.3427C50.6496 89.1402 50.2857 89.0389 49.8513 89.0389Z" fill="black"/>
<path d="M44.064 87.5395L42.8898 94.1986L41.8667 94.0182L43.0408 87.3591L44.064 87.5395ZM42.1739 95.2167C42.3733 95.2519 42.5333 95.3501 42.6539 95.5114C42.7715 95.6722 42.8135 95.848 42.7799 96.0388C42.7463 96.2295 42.6467 96.3804 42.4811 96.4912C42.3126 96.6016 42.1287 96.6392 41.9293 96.604C41.7298 96.5689 41.5713 96.4709 41.4536 96.3101C41.333 96.1487 41.2896 95.9727 41.3232 95.7819C41.3569 95.5912 41.4579 95.4406 41.6264 95.3303C41.7919 95.2194 41.9744 95.1815 42.1739 95.2167Z" fill="black"/>
<path d="M32.7417 91.3531L33.0429 90.5258L36.3357 91.7243L36.0346 92.5516L32.7417 91.3531ZM34.5208 93.7246L33.5445 93.3693L35.7488 87.3131C35.8491 87.0373 35.8844 86.8159 35.8547 86.6489C35.8211 86.4837 35.7494 86.3545 35.6396 86.2615C35.5261 86.1702 35.3976 86.0984 35.2542 86.0462C35.1466 86.0071 35.0564 85.9805 34.9834 85.9664C34.9094 85.9551 34.8503 85.946 34.8059 85.9393L34.9265 84.99C35.0018 84.9893 35.1032 84.9981 35.2308 85.0164C35.3594 85.032 35.5147 85.0729 35.6968 85.1392C35.9725 85.2395 36.2212 85.3972 36.4428 85.6122C36.6616 85.8261 36.8138 86.086 36.8992 86.392C36.9818 86.6969 36.9559 87.0341 36.8214 87.4037L34.5208 93.7246Z" fill="black"/>
<path d="M30.171 87.1273L32.2049 83.6046L33.1046 84.1241L28.5967 91.932L27.697 91.4125L29.3522 88.5455L29.276 88.5015C28.9641 88.7247 28.6195 88.8461 28.2423 88.8655C27.8611 88.886 27.4405 88.7635 26.9804 88.4979C26.5814 88.2675 26.2782 87.9856 26.0707 87.6524C25.8618 87.3216 25.7693 86.9446 25.7934 86.5214C25.8135 86.0992 25.9688 85.6365 26.2594 85.1332L28.4077 81.4123L29.3074 81.9318L27.1943 85.5917C26.9258 86.0568 26.8389 86.4862 26.9336 86.8797C27.0243 87.2744 27.2819 87.5942 27.7063 87.8393C28.0012 88.0095 28.3014 88.0999 28.6072 88.1103C28.9104 88.1193 29.1983 88.0432 29.4709 87.8821C29.741 87.7195 29.9744 87.4679 30.171 87.1273Z" fill="black"/>
<path d="M22.3479 80.0116L19.7785 83.0736L18.9826 82.4058L23.329 77.2259L24.1249 77.8937L23.3892 78.7705L23.4431 78.8158C23.7853 78.6547 24.1618 78.5894 24.5728 78.6201C24.9819 78.6531 25.382 78.8337 25.7732 79.1619C26.097 79.4336 26.3253 79.7459 26.4583 80.0988C26.5893 80.454 26.6061 80.8358 26.5085 81.2443C26.409 81.655 26.1744 82.0807 25.8047 82.5214L23.0429 85.8128L22.247 85.145L24.9635 81.9075C25.2805 81.5298 25.4276 81.1399 25.4049 80.7378C25.38 80.3337 25.2022 79.9931 24.8718 79.7157C24.6739 79.5497 24.4303 79.4315 24.1408 79.361C23.8491 79.2886 23.5458 79.2985 23.2309 79.3906C22.9139 79.4808 22.6195 79.6878 22.3479 80.0116Z" fill="black"/>
<path d="M22.4826 76.3234L15.5761 82.1186L14.9083 81.3228L17.4577 79.1835L17.4011 79.1161C17.2622 79.1331 17.0796 79.1483 16.8534 79.1619C16.6231 79.1751 16.3708 79.1301 16.0966 79.0269C15.8181 78.9234 15.5374 78.703 15.2545 78.3658C14.8885 77.9297 14.6749 77.4537 14.6138 76.938C14.5527 76.4223 14.6439 75.9032 14.8875 75.3808C15.1311 74.8584 15.525 74.369 16.0691 73.9124C16.6176 73.4521 17.1714 73.1465 17.7304 72.9954C18.2872 72.8462 18.8144 72.8444 19.312 72.99C19.8074 73.1375 20.2362 73.4271 20.5984 73.8587C20.8776 74.1915 21.046 74.5041 21.1038 74.7966C21.1593 75.0911 21.1615 75.3516 21.1104 75.5784C21.057 75.8071 21.0077 75.9902 20.9623 76.1279L21.0415 76.2223L21.8374 75.5545L22.4826 76.3234ZM19.2361 77.7142C19.6273 77.386 19.9243 77.0391 20.1271 76.6735C20.3277 76.3099 20.4198 75.9471 20.4036 75.5853C20.3851 75.2254 20.2419 74.8858 19.974 74.5666C19.6948 74.2338 19.3741 74.0297 19.012 73.9543C18.6458 73.8785 18.266 73.9099 17.8726 74.0484C17.4752 74.1865 17.0921 74.4102 16.7234 74.7196C16.3592 75.0252 16.0781 75.3569 15.8801 75.7145C15.6781 76.0718 15.5859 76.4345 15.6037 76.8027C15.6173 77.1706 15.7657 77.5231 16.0486 77.8603C16.3203 78.1841 16.6306 78.3873 16.9796 78.4699C17.3263 78.5544 17.693 78.5302 18.0796 78.3974C18.4639 78.2664 18.8495 78.0387 19.2361 77.7142Z" fill="black"/>
<path d="M12.6698 63.3804C12.7913 63.7141 12.8208 64.0484 12.7585 64.3834C12.6934 64.7194 12.5531 65.0203 12.3375 65.2862C12.121 65.5493 11.8458 65.7416 11.5121 65.863C11.1757 65.9855 10.8413 66.015 10.5091 65.9517C10.1731 65.8866 9.87352 65.7458 9.61044 65.5292C9.34459 65.3137 9.15094 65.039 9.02948 64.7053C8.90702 64.3689 8.87884 64.034 8.94494 63.7008C9.00727 63.3658 9.14672 63.0667 9.36328 62.8036C9.57608 62.5388 9.85071 62.3451 10.1872 62.2227C10.5209 62.1012 10.8557 62.073 11.1917 62.1381C11.5267 62.2005 11.8272 62.3394 12.093 62.555C12.3551 62.7688 12.5474 63.0439 12.6698 63.3804Z" fill="black"/>
<path d="M14.6766 49.8158C14.6766 50.3177 14.612 50.7491 14.4829 51.1101C14.3567 51.4711 14.1894 51.7719 13.981 52.0126C13.7756 52.2503 13.5555 52.4396 13.3207 52.5804L12.7396 51.7528C12.8628 51.6589 13.0037 51.5401 13.1622 51.3962C13.3236 51.2524 13.463 51.0558 13.5804 50.8063C13.7007 50.554 13.7609 50.2238 13.7609 49.8158C13.7609 49.27 13.6288 48.8195 13.3647 48.4644C13.1006 48.1092 12.6867 47.9317 12.1233 47.9317H10.7498V48.0197C10.873 48.096 11.0256 48.2046 11.2076 48.3455C11.3866 48.4834 11.5466 48.683 11.6874 48.9442C11.8254 49.2025 11.8943 49.5517 11.8943 49.9919C11.8943 50.5378 11.7652 51.0279 11.5069 51.4623C11.2487 51.8937 10.873 52.2356 10.38 52.488C9.88693 52.7375 9.28822 52.8622 8.58387 52.8622C7.89125 52.8622 7.28814 52.7404 6.77455 52.4968C6.25802 52.2532 5.85888 51.9142 5.57714 51.4799C5.29246 51.0455 5.15012 50.5437 5.15012 49.9743C5.15012 49.5341 5.22349 49.1849 5.37023 48.9266C5.51404 48.6654 5.67839 48.4658 5.86328 48.3279C6.04524 48.187 6.19492 48.0784 6.31231 48.0021V47.8965H5.23817V46.8928H12.1937C12.7748 46.8928 13.2473 47.0248 13.6112 47.289C13.9781 47.5502 14.2466 47.9023 14.4168 48.3455C14.59 48.7857 14.6766 49.2758 14.6766 49.8158ZM10.9611 49.8511C10.9611 49.4343 10.8657 49.0821 10.6749 48.7945C10.4842 48.5069 10.2098 48.2883 9.85171 48.1386C9.49366 47.9889 9.06518 47.9141 8.56626 47.9141C8.07908 47.9141 7.64912 47.9874 7.2764 48.1342C6.90368 48.2809 6.61166 48.4981 6.40036 48.7857C6.18905 49.0733 6.0834 49.4284 6.0834 49.8511C6.0834 50.2913 6.19492 50.6581 6.41797 50.9516C6.64101 51.2422 6.94036 51.4608 7.31602 51.6076C7.69168 51.7514 8.10842 51.8233 8.56626 51.8233C9.03583 51.8233 9.45111 51.7499 9.81209 51.6032C10.1701 51.4535 10.4519 51.2334 10.6573 50.9428C10.8598 50.6493 10.9611 50.2854 10.9611 49.8511Z" fill="black"/>
<path d="M12.4605 44.064L5.80142 42.8898L5.98182 41.8667L12.6409 43.0408L12.4605 44.064ZM4.7833 42.1739C4.74813 42.3733 4.64989 42.5333 4.48857 42.6539C4.32776 42.7715 4.15197 42.8135 3.96122 42.7799C3.77046 42.7463 3.61965 42.6467 3.50878 42.4811C3.39842 42.3126 3.36082 42.1287 3.39598 41.9293C3.43115 41.7298 3.52914 41.5713 3.68995 41.4536C3.85127 41.333 4.02731 41.2896 4.21807 41.3232C4.40882 41.3569 4.55938 41.4579 4.66974 41.6264C4.78061 41.7919 4.81846 41.9744 4.7833 42.1739Z" fill="black"/>
<path d="M8.64677 32.7418L9.47412 33.043L8.27562 36.3358L7.44827 36.0347L8.64677 32.7418ZM6.27525 34.5209L6.63059 33.5446L12.6868 35.7489C12.9626 35.8493 13.184 35.8846 13.351 35.8548C13.5162 35.8212 13.6454 35.7496 13.7384 35.6398C13.8297 35.5262 13.9015 35.3977 13.9537 35.2543C13.9928 35.1468 14.0194 35.0565 14.0335 34.9835C14.0448 34.9096 14.0538 34.8504 14.0606 34.806L15.0099 34.9267C15.0106 35.0019 15.0018 35.1033 14.9835 35.2309C14.9679 35.3595 14.927 35.5149 14.8607 35.6969C14.7603 35.9727 14.6027 36.2213 14.3877 36.4429C14.1738 36.6618 13.9138 36.8139 13.6079 36.8993C13.303 36.982 12.9658 36.956 12.5962 36.8215L6.27525 34.5209Z" fill="black"/>
<path d="M12.8728 30.171L16.3955 32.2049L15.876 33.1046L8.06815 28.5967L8.58762 27.697L11.4546 29.3522L11.4986 29.276C11.2754 28.9641 11.1541 28.6195 11.1346 28.2423C11.1141 27.8611 11.2367 27.4405 11.5023 26.9804C11.7327 26.5814 12.0145 26.2782 12.3478 26.0707C12.6785 25.8618 13.0555 25.7693 13.4787 25.7934C13.9009 25.8135 14.3636 25.9688 14.8669 26.2594L18.5878 28.4077L18.0684 29.3074L14.4084 27.1943C13.9433 26.9258 13.5139 26.8389 13.1204 26.9336C12.7257 27.0243 12.4059 27.2819 12.1608 27.7063C11.9906 28.0012 11.9003 28.3014 11.8898 28.6072C11.8808 28.9104 11.9569 29.1983 12.118 29.4709C12.2806 29.741 12.5322 29.9744 12.8728 30.171Z" fill="black"/>
<path d="M19.9883 22.348L16.9263 19.7786L17.5941 18.9827L22.7739 23.3292L22.1061 24.125L21.2293 23.3893L21.1841 23.4433C21.3452 23.7854 21.4105 24.1619 21.3798 24.5729C21.3468 24.982 21.1662 25.3822 20.838 25.7733C20.5663 26.0971 20.254 26.3254 19.9011 26.4584C19.5459 26.5895 19.1641 26.6062 18.7556 26.5086C18.3448 26.4091 17.9191 26.1745 17.4785 25.8048L14.1871 23.043L14.8549 22.2471L18.0923 24.9636C18.47 25.2806 18.86 25.4277 19.2621 25.405C19.6661 25.3801 20.0068 25.2024 20.2841 24.8719C20.4501 24.674 20.5684 24.4304 20.6389 24.1409C20.7113 23.8492 20.7014 23.5459 20.6093 23.2311C20.5191 22.914 20.3121 22.6196 19.9883 22.348Z" fill="black"/>
<path d="M23.6766 22.4826L17.8814 15.5761L18.6772 14.9083L20.8165 17.4577L20.8839 17.4011C20.8669 17.2622 20.8517 17.0796 20.8381 16.8534C20.8249 16.6231 20.8699 16.3708 20.9731 16.0966C21.0766 15.8181 21.297 15.5374 21.6342 15.2545C22.0703 14.8885 22.5463 14.6749 23.062 14.6138C23.5777 14.5527 24.0968 14.6439 24.6192 14.8875C25.1416 15.1311 25.631 15.525 26.0876 16.0691C26.5479 16.6176 26.8535 17.1714 27.0046 17.7304C27.1538 18.2872 27.1556 18.8144 27.01 19.312C26.8625 19.8074 26.5729 20.2362 26.1413 20.5984C25.8085 20.8776 25.4959 21.046 25.2034 21.1038C24.9089 21.1593 24.6484 21.1615 24.4216 21.1104C24.1929 21.057 24.0098 21.0077 23.8721 20.9623L23.7777 21.0415L24.4455 21.8374L23.6766 22.4826ZM22.2858 19.2361C22.614 19.6273 22.9609 19.9243 23.3265 20.1271C23.6901 20.3277 24.0529 20.4198 24.4147 20.4036C24.7746 20.3851 25.1142 20.2419 25.4334 19.974C25.7662 19.6948 25.9703 19.3741 26.0457 19.012C26.1215 18.6458 26.0901 18.266 25.9516 17.8726C25.8135 17.4752 25.5898 17.0921 25.2804 16.7234C24.9748 16.3592 24.6431 16.0781 24.2855 15.8801C23.9282 15.6781 23.5655 15.5859 23.1973 15.6037C22.8294 15.6173 22.4769 15.7657 22.1397 16.0486C21.8159 16.3203 21.6127 16.6306 21.5301 16.9796C21.4456 17.3263 21.4698 17.693 21.6026 18.0796C21.7336 18.4639 21.9613 18.8495 22.2858 19.2361Z" fill="black"/>
<path d="M36.6195 12.6698C36.2858 12.7913 35.9515 12.8208 35.6165 12.7585C35.2805 12.6934 34.9795 12.5531 34.7137 12.3375C34.4506 12.121 34.2583 11.8458 34.1369 11.5121C34.0144 11.1757 33.9848 10.8413 34.0482 10.5091C34.1133 10.1731 34.2541 9.87352 34.4707 9.61044C34.6862 9.34459 34.9608 9.15094 35.2945 9.02948C35.631 8.90702 35.9659 8.87884 36.2991 8.94494C36.6341 9.00727 36.9332 9.14672 37.1962 9.36328C37.4611 9.57608 37.6547 9.85071 37.7772 10.1872C37.8987 10.5209 37.9268 10.8557 37.8617 11.1917C37.7994 11.5267 37.6605 11.8272 37.4449 12.093C37.2311 12.3551 36.956 12.5474 36.6195 12.6698Z" fill="black"/>
<path d="M50.1839 14.6766C49.6821 14.6766 49.2506 14.612 48.8897 14.4829C48.5287 14.3567 48.2279 14.1894 47.9872 13.981C47.7495 13.7756 47.5602 13.5555 47.4193 13.3207L48.2469 12.7396C48.3408 12.8628 48.4597 13.0037 48.6035 13.1622C48.7473 13.3236 48.9439 13.463 49.1934 13.5804C49.4458 13.7007 49.776 13.7609 50.1839 13.7609C50.7298 13.7609 51.1803 13.6288 51.5354 13.3647C51.8905 13.1006 52.0681 12.6867 52.0681 12.1233V10.7498H51.98C51.9037 10.873 51.7951 11.0256 51.6543 11.2076C51.5163 11.3866 51.3168 11.5466 51.0556 11.6874C50.7973 11.8254 50.448 11.8943 50.0078 11.8943C49.4619 11.8943 48.9718 11.7652 48.5375 11.5069C48.1061 11.2487 47.7642 10.873 47.5118 10.38C47.2623 9.88693 47.1376 9.28822 47.1376 8.58387C47.1376 7.89125 47.2594 7.28814 47.503 6.77455C47.7465 6.25802 48.0855 5.85888 48.5199 5.57714C48.9542 5.29246 49.4561 5.15012 50.0254 5.15012C50.4657 5.15012 50.8149 5.22349 51.0732 5.37023C51.3344 5.51404 51.5339 5.67839 51.6719 5.86328C51.8127 6.04524 51.9213 6.19492 51.9976 6.31231H52.1033V5.23817H53.107V12.1937C53.107 12.7748 52.9749 13.2473 52.7108 13.6112C52.4496 13.9781 52.0974 14.2466 51.6543 14.4168C51.214 14.59 50.7239 14.6766 50.1839 14.6766ZM50.1487 10.9611C50.5654 10.9611 50.9176 10.8657 51.2052 10.6749C51.4928 10.4842 51.7115 10.2098 51.8612 9.85171C52.0108 9.49366 52.0857 9.06518 52.0857 8.56626C52.0857 8.07908 52.0123 7.64912 51.8656 7.2764C51.7188 6.90368 51.5016 6.61166 51.214 6.40036C50.9264 6.18905 50.5713 6.0834 50.1487 6.0834C49.7085 6.0834 49.3416 6.19492 49.0481 6.41797C48.7576 6.64101 48.5389 6.94036 48.3922 7.31602C48.2484 7.69168 48.1765 8.10842 48.1765 8.56626C48.1765 9.03583 48.2499 9.45111 48.3966 9.81209C48.5463 10.1701 48.7664 10.4519 49.0569 10.6573C49.3504 10.8598 49.7143 10.9611 50.1487 10.9611Z" fill="black"/>
<path d="M55.936 12.4605L57.1102 5.80142L58.1333 5.98182L56.9592 12.6409L55.936 12.4605ZM57.8261 4.7833C57.6267 4.74813 57.4667 4.64989 57.3461 4.48857C57.2285 4.32776 57.1865 4.15197 57.2201 3.96122C57.2537 3.77046 57.3533 3.61965 57.5189 3.50878C57.6874 3.39842 57.8713 3.36082 58.0707 3.39598C58.2702 3.43115 58.4287 3.52914 58.5464 3.68995C58.667 3.85127 58.7104 4.02731 58.6768 4.21807C58.6431 4.40882 58.5421 4.55938 58.3736 4.66974C58.2081 4.78061 58.0256 4.81846 57.8261 4.7833Z" fill="black"/>
<path d="M67.2583 8.64689L66.9571 9.47424L63.6643 8.27574L63.9654 7.44839L67.2583 8.64689ZM65.4792 6.27538L66.4555 6.63071L64.2512 12.6869C64.1509 12.9627 64.1156 13.1841 64.1453 13.3511C64.1789 13.5163 64.2506 13.6455 64.3604 13.7385C64.4739 13.8298 64.6024 13.9016 64.7458 13.9538C64.8534 13.9929 64.9436 14.0195 65.0166 14.0336C65.0906 14.0449 65.1497 14.054 65.1941 14.0607L65.0735 15.01C64.9982 15.0107 64.8968 15.0019 64.7692 14.9836C64.6406 14.968 64.4853 14.9271 64.3032 14.8608C64.0275 14.7605 63.7788 14.6028 63.5572 14.3878C63.3384 14.1739 63.1862 13.914 63.1008 13.608C63.0182 13.3031 63.0441 12.9659 63.1786 12.5963L65.4792 6.27538Z" fill="black"/>
<path d="M69.829 12.8727L67.7951 16.3954L66.8954 15.8759L71.4033 8.06803L72.303 8.5875L70.6478 11.4545L70.724 11.4985C71.0359 11.2753 71.3805 11.1539 71.7577 11.1345C72.1389 11.114 72.5595 11.2365 73.0196 11.5021C73.4186 11.7325 73.7218 12.0144 73.9293 12.3476C74.1382 12.6784 74.2307 13.0554 74.2066 13.4786C74.1865 13.9008 74.0312 14.3635 73.7406 14.8668L71.5923 18.5877L70.6926 18.0682L72.8057 14.4083C73.0742 13.9432 73.1611 13.5138 73.0664 13.1203C72.9757 12.7256 72.7181 12.4058 72.2937 12.1607C71.9988 11.9905 71.6986 11.9001 71.3928 11.8897C71.0896 11.8807 70.8017 11.9568 70.5291 12.1179C70.259 12.2805 70.0256 12.5321 69.829 12.8727Z" fill="black"/>
<path d="M77.6521 19.9884L80.2215 16.9264L81.0174 17.5942L76.671 22.7741L75.8751 22.1063L76.6108 21.2295L76.5569 21.1842C76.2147 21.3453 75.8382 21.4106 75.4272 21.3799C75.0181 21.3469 74.618 21.1663 74.2268 20.8381C73.903 20.5664 73.6747 20.2541 73.5417 19.9012C73.4107 19.546 73.3939 19.1642 73.4915 18.7557C73.591 18.345 73.8256 17.9193 74.1953 17.4786L76.9571 14.1872L77.753 14.855L75.0365 18.0925C74.7195 18.4702 74.5724 18.8601 74.5951 19.2622C74.62 19.6663 74.7978 20.0069 75.1282 20.2843C75.3261 20.4503 75.5697 20.5685 75.8592 20.639C76.1509 20.7114 76.4542 20.7015 76.7691 20.6094C77.0861 20.5192 77.3805 20.3122 77.6521 19.9884Z" fill="black"/>
<path d="M77.5174 23.6766L84.4239 17.8814L85.0917 18.6772L82.5423 20.8165L82.5989 20.8839C82.7378 20.8669 82.9204 20.8517 83.1466 20.8381C83.3769 20.8249 83.6292 20.8699 83.9034 20.9731C84.1819 21.0766 84.4626 21.297 84.7455 21.6342C85.1115 22.0703 85.3251 22.5463 85.3862 23.062C85.4473 23.5777 85.3561 24.0968 85.1125 24.6192C84.8689 25.1416 84.475 25.631 83.9309 26.0876C83.3824 26.5479 82.8286 26.8535 82.2696 27.0046C81.7128 27.1538 81.1856 27.1556 80.688 27.01C80.1926 26.8625 79.7638 26.5729 79.4016 26.1413C79.1224 25.8085 78.954 25.4959 78.8962 25.2034C78.8407 24.9089 78.8385 24.6484 78.8896 24.4216C78.943 24.1929 78.9923 24.0098 79.0377 23.8721L78.9585 23.7777L78.1626 24.4455L77.5174 23.6766ZM80.7639 22.2858C80.3727 22.614 80.0757 22.9609 79.8729 23.3265C79.6723 23.6901 79.5802 24.0529 79.5964 24.4147C79.6149 24.7746 79.7581 25.1142 80.026 25.4334C80.3052 25.7662 80.6259 25.9703 80.988 26.0457C81.3542 26.1215 81.734 26.0901 82.1274 25.9516C82.5248 25.8135 82.9079 25.5898 83.2766 25.2804C83.6408 24.9748 83.9219 24.6431 84.1199 24.2855C84.3219 23.9282 84.4141 23.5655 84.3963 23.1973C84.3827 22.8294 84.2343 22.4769 83.9514 22.1397C83.6797 21.8159 83.3694 21.6127 83.0204 21.5301C82.6737 21.4456 82.307 21.4698 81.9204 21.6026C81.5361 21.7336 81.1505 21.9613 80.7639 22.2858Z" fill="black"/>
<path d="M87.3302 36.6196C87.2087 36.2859 87.1792 35.9516 87.2415 35.6166C87.3066 35.2806 87.4469 34.9797 87.6625 34.7138C87.879 34.4507 88.1542 34.2584 88.4879 34.137C88.8243 34.0145 89.1587 33.985 89.4909 34.0483C89.8269 34.1134 90.1265 34.2542 90.3896 34.4708C90.6554 34.6863 90.8491 34.961 90.9705 35.2947C91.093 35.6311 91.1212 35.966 91.0551 36.2992C90.9927 36.6342 90.8533 36.9333 90.6367 37.1964C90.4239 37.4612 90.1493 37.6549 89.8128 37.7773C89.4791 37.8988 89.1443 37.927 88.8083 37.8619C88.4733 37.7995 88.1728 37.6606 87.907 37.445C87.6449 37.2312 87.4526 36.9561 87.3302 36.6196Z" fill="black"/>
<path d="M85.3234 50.1842C85.3234 49.6823 85.388 49.2509 85.5171 48.8899C85.6433 48.5289 85.8106 48.2281 86.019 47.9874C86.2244 47.7497 86.4445 47.5604 86.6793 47.4196L87.2604 48.2472C87.1372 48.3411 86.9963 48.4599 86.8378 48.6038C86.6764 48.7476 86.537 48.9442 86.4196 49.1937C86.2993 49.446 86.2391 49.7762 86.2391 50.1842C86.2391 50.73 86.3712 51.1805 86.6353 51.5356C86.8994 51.8908 87.3133 52.0683 87.8767 52.0683H89.2502V51.9803C89.127 51.904 88.9744 51.7954 88.7924 51.6545C88.6134 51.5166 88.4534 51.317 88.3126 51.0558C88.1746 50.7975 88.1057 50.4483 88.1057 50.0081C88.1057 49.4622 88.2348 48.9721 88.4931 48.5377C88.7513 48.1063 89.127 47.7644 89.62 47.512C90.1131 47.2625 90.7118 47.1378 91.4161 47.1378C92.1088 47.1378 92.7119 47.2596 93.2255 47.5032C93.742 47.7468 94.1411 48.0858 94.4229 48.5201C94.7075 48.9545 94.8499 49.4563 94.8499 50.0257C94.8499 50.4659 94.7765 50.8151 94.6298 51.0734C94.486 51.3346 94.3216 51.5342 94.1367 51.6721C93.9548 51.813 93.8051 51.9216 93.6877 51.9979V52.1035H94.7618V53.1072H87.8063C87.2252 53.1072 86.7527 52.9752 86.3888 52.711C86.0219 52.4498 85.7534 52.0977 85.5832 51.6545C85.41 51.2143 85.3234 50.7242 85.3234 50.1842ZM89.0389 50.1489C89.0389 50.5657 89.1343 50.9179 89.3251 51.2055C89.5158 51.4931 89.7902 51.7117 90.1483 51.8614C90.5063 52.0111 90.9348 52.0859 91.4337 52.0859C91.9209 52.0859 92.3509 52.0126 92.7236 51.8658C93.0963 51.7191 93.3883 51.5019 93.5996 51.2143C93.811 50.9267 93.9166 50.5716 93.9166 50.1489C93.9166 49.7087 93.8051 49.3419 93.582 49.0484C93.359 48.7578 93.0596 48.5392 92.684 48.3924C92.3083 48.2486 91.8916 48.1767 91.4337 48.1767C90.9642 48.1767 90.5489 48.2501 90.1879 48.3968C89.8299 48.5465 89.5481 48.7666 89.3427 49.0572C89.1402 49.3507 89.0389 49.7146 89.0389 50.1489Z" fill="black"/>
<path d="M87.5395 55.936L94.1986 57.1102L94.0182 58.1333L87.3591 56.9592L87.5395 55.936ZM95.2167 57.8261C95.2519 57.6267 95.3501 57.4667 95.5114 57.3461C95.6722 57.2285 95.848 57.1865 96.0388 57.2201C96.2295 57.2537 96.3804 57.3533 96.4912 57.5189C96.6016 57.6874 96.6392 57.8713 96.604 58.0707C96.5689 58.2702 96.4709 58.4287 96.3101 58.5464C96.1487 58.667 95.9727 58.7104 95.7819 58.6768C95.5912 58.6431 95.4406 58.5421 95.3303 58.3736C95.2194 58.2081 95.1815 58.0256 95.2167 57.8261Z" fill="black"/>
<path d="M91.3532 67.2582L90.5259 66.957L91.7244 63.6642L92.5517 63.9653L91.3532 67.2582ZM93.7247 65.4791L93.3694 66.4554L87.3132 64.2511C87.0374 64.1507 86.816 64.1154 86.649 64.1452C86.4838 64.1788 86.3546 64.2504 86.2616 64.3602C86.1703 64.4738 86.0985 64.6023 86.0463 64.7457C86.0072 64.8532 85.9806 64.9435 85.9665 65.0165C85.9552 65.0904 85.9462 65.1496 85.9394 65.194L84.9901 65.0733C84.9894 64.9981 84.9982 64.8967 85.0165 64.7691C85.0321 64.6405 85.073 64.4851 85.1393 64.3031C85.2397 64.0273 85.3973 63.7787 85.6123 63.5571C85.8262 63.3382 86.0862 63.1861 86.3921 63.1007C86.697 63.018 87.0342 63.044 87.4038 63.1785L93.7247 65.4791Z" fill="black"/>
<path d="M87.1272 69.829L83.6045 67.7951L84.124 66.8954L91.9318 71.4033L91.4124 72.303L88.5454 70.6478L88.5014 70.724C88.7246 71.0359 88.8459 71.3805 88.8654 71.7577C88.8859 72.1389 88.7633 72.5595 88.4977 73.0196C88.2673 73.4186 87.9855 73.7218 87.6522 73.9293C87.3215 74.1382 86.9445 74.2307 86.5213 74.2066C86.0991 74.1865 85.6364 74.0312 85.1331 73.7406L81.4122 71.5923L81.9316 70.6926L85.5916 72.8057C86.0567 73.0742 86.4861 73.1611 86.8796 73.0664C87.2743 72.9757 87.5941 72.7181 87.8392 72.2937C88.0094 71.9988 88.0997 71.6986 88.1102 71.3928C88.1192 71.0896 88.0431 70.8017 87.882 70.5291C87.7194 70.259 87.4678 70.0256 87.1272 69.829Z" fill="black"/>
<path d="M80.0117 77.652L83.0737 80.2214L82.4059 81.0173L77.2261 76.6708L77.8939 75.875L78.7707 76.6107L78.8159 76.5567C78.6548 76.2146 78.5895 75.8381 78.6202 75.4271C78.6532 75.018 78.8338 74.6178 79.162 74.2267C79.4337 73.9029 79.746 73.6746 80.0989 73.5416C80.4541 73.4105 80.8359 73.3938 81.2444 73.4914C81.6552 73.5909 82.0809 73.8255 82.5215 74.1952L85.8129 76.957L85.1451 77.7529L81.9077 75.0364C81.53 74.7194 81.14 74.5723 80.7379 74.595C80.3339 74.6199 79.9932 74.7976 79.7159 75.1281C79.5499 75.326 79.4316 75.5696 79.3611 75.8591C79.2887 76.1508 79.2986 76.4541 79.3907 76.7689C79.4809 77.086 79.6879 77.3804 80.0117 77.652Z" fill="black"/>
<path d="M76.3234 77.5174L82.1186 84.4239L81.3228 85.0917L79.1835 82.5423L79.1161 82.5989C79.1331 82.7378 79.1483 82.9204 79.1619 83.1466C79.1751 83.3769 79.1301 83.6292 79.0269 83.9034C78.9234 84.1819 78.703 84.4626 78.3658 84.7455C77.9297 85.1115 77.4537 85.3251 76.938 85.3862C76.4223 85.4473 75.9032 85.3561 75.3808 85.1125C74.8584 84.8689 74.369 84.475 73.9124 83.9309C73.4521 83.3824 73.1465 82.8286 72.9954 82.2696C72.8462 81.7128 72.8444 81.1856 72.99 80.688C73.1375 80.1926 73.4271 79.7638 73.8587 79.4016C74.1915 79.1224 74.5041 78.954 74.7966 78.8962C75.0911 78.8407 75.3516 78.8385 75.5784 78.8896C75.8071 78.943 75.9902 78.9923 76.1279 79.0377L76.2223 78.9585L75.5545 78.1626L76.3234 77.5174ZM77.7142 80.7639C77.386 80.3727 77.0391 80.0757 76.6735 79.8729C76.3099 79.6723 75.9471 79.5802 75.5853 79.5964C75.2254 79.6149 74.8858 79.7581 74.5666 80.026C74.2338 80.3052 74.0297 80.6259 73.9543 80.988C73.8785 81.3542 73.9099 81.734 74.0484 82.1274C74.1865 82.5248 74.4102 82.9079 74.7196 83.2766C75.0252 83.6408 75.3569 83.9219 75.7145 84.1199C76.0718 84.3219 76.4345 84.4141 76.8027 84.3963C77.1706 84.3827 77.5231 84.2343 77.8603 83.9514C78.1841 83.6797 78.3873 83.3694 78.4699 83.0204C78.5544 82.6737 78.5302 82.307 78.3974 81.9204C78.2664 81.5361 78.0387 81.1505 77.7142 80.7639Z" fill="black"/>
<path d="M63.3805 87.3302C63.7142 87.2087 64.0485 87.1792 64.3835 87.2415C64.7195 87.3066 65.0205 87.4469 65.2863 87.6625C65.5494 87.879 65.7417 88.1542 65.8631 88.4879C65.9856 88.8243 66.0152 89.1587 65.9518 89.4909C65.8867 89.8269 65.7459 90.1265 65.5293 90.3896C65.3138 90.6554 65.0392 90.8491 64.7055 90.9705C64.369 91.093 64.0341 91.1212 63.7009 91.0551C63.3659 90.9927 63.0668 90.8533 62.8038 90.6367C62.5389 90.4239 62.3453 90.1493 62.2228 89.8128C62.1013 89.4791 62.0732 89.1443 62.1383 88.8083C62.2006 88.4733 62.3395 88.1728 62.5551 87.907C62.7689 87.6449 63.044 87.4526 63.3805 87.3302Z" fill="black"/>
</svg>
