<svg width="100" height="100" viewBox="0 0 100 100" fill="none" xmlns="http://www.w3.org/2000/svg">
<path d="M49.634 97.0158V88H50.6729V97.0158H49.634Z" fill="black"/>
<path d="M45.2581 87.709L44.2958 94.402L43.2674 94.2541L44.2297 87.5611L45.2581 87.709ZM43.6125 95.4423C43.8129 95.4711 43.976 95.5642 44.1016 95.7217C44.2243 95.8787 44.2719 96.053 44.2443 96.2447C44.2167 96.4365 44.122 96.5904 43.96 96.7064C43.7951 96.8221 43.6125 96.8655 43.412 96.8367C43.2116 96.8079 43.05 96.715 42.9273 96.558C42.8017 96.4005 42.7527 96.226 42.7802 96.0342C42.8078 95.8425 42.904 95.6888 43.0689 95.5732C43.2309 95.4571 43.4121 95.4135 43.6125 95.4423Z" fill="black"/>
<path d="M39.4483 90.7454L40.5943 86.8425L41.5911 87.1352L39.6861 93.6231L38.723 93.3403L39.0207 92.3266L38.9362 92.3018C38.6874 92.5866 38.3788 92.7835 38.0103 92.8925C37.641 93.0043 37.2114 92.9882 36.7214 92.8444C36.2821 92.7154 35.9242 92.5124 35.6477 92.2355C35.3703 91.9613 35.1934 91.6157 35.1171 91.1987C35.0399 90.7845 35.0823 90.3015 35.2443 89.7496L36.4548 85.627L37.4517 85.9197L36.261 89.9747C36.1114 90.4844 36.1271 90.9203 36.3083 91.2824C36.4887 91.6474 36.8098 91.8976 37.2716 92.0332C37.5898 92.1267 37.8945 92.1412 38.1856 92.0768C38.4739 92.0116 38.7287 91.8677 38.9501 91.6452C39.1714 91.4226 39.3375 91.1227 39.4483 90.7454Z" fill="black"/>
<path d="M34.3344 87.3311L33.8164 88.5077L33.6242 88.4199L29.6824 89.93L28.5131 89.396L32.7043 87.8062L32.7844 87.8428L34.3344 87.3311ZM36.2395 85.4909L32.4942 93.692L31.5492 93.2604L35.2945 85.0593L36.2395 85.4909ZM32.3312 83.7061L33.344 87.8467L32.3713 88.1962L31.1299 83.1574L32.3312 83.7061Z" fill="black"/>
<path d="M29.1454 81.6008C29.6935 81.9531 30.0886 82.3779 30.3306 82.8753C30.5685 83.3736 30.6545 83.9103 30.5884 84.4853C30.5183 85.0612 30.2961 85.6405 29.9216 86.2232C29.5471 86.8059 29.111 87.2512 28.613 87.5591C28.111 87.868 27.5886 88.0241 27.0456 88.0275C26.4986 88.0318 25.9684 87.869 25.4548 87.5389C25.1586 87.3485 24.8977 87.1111 24.6723 86.8267C24.4469 86.5423 24.2871 86.2129 24.1929 85.8383C24.0971 85.4663 24.0955 85.0536 24.188 84.6002C24.2805 84.1468 24.4973 83.6547 24.8385 83.1239L25.0765 82.7536L29.4613 85.5715L28.9758 86.327L25.4797 84.0803C25.2735 84.4012 25.1536 84.7289 25.1202 85.0632C25.0842 85.396 25.1367 85.7105 25.2777 86.0069C25.4161 86.3018 25.6434 86.5507 25.9594 86.7538C26.3075 86.9775 26.6643 87.0847 27.0296 87.0753C27.3909 87.0668 27.7276 86.9691 28.0395 86.7824C28.3514 86.5956 28.6081 86.3454 28.8096 86.0318L29.1333 85.5282C29.4094 85.0986 29.5693 84.6868 29.6132 84.2929C29.653 83.8998 29.5895 83.5398 29.4229 83.2129C29.2546 82.8885 28.9939 82.6128 28.6409 82.3859C28.4113 82.2384 28.1832 82.1372 27.9568 82.0824C27.7263 82.0285 27.5012 82.0233 27.2813 82.0669C27.0598 82.1129 26.8486 82.2109 26.6476 82.3608L25.9555 81.5812C26.2284 81.3519 26.5397 81.196 26.8891 81.1137C27.237 81.0337 27.6042 81.0324 27.9905 81.1098C28.3753 81.1896 28.7603 81.3533 29.1454 81.6008Z" fill="black"/>
<path d="M25.2564 78.6543C25.6822 79.0233 25.9649 79.4567 26.1046 79.9543C26.2423 80.4542 26.2321 80.9813 26.0741 81.5356C25.9142 82.0922 25.5997 82.641 25.1308 83.1822C24.6657 83.719 24.1701 84.105 23.6439 84.3403C23.1177 84.5756 22.5972 84.6586 22.0825 84.5893C21.5679 84.52 21.0954 84.2989 20.6651 83.926C20.3324 83.6378 20.1176 83.3546 20.0207 83.0765C19.9197 82.7986 19.8787 82.5457 19.8978 82.3175C19.9127 82.0897 19.9298 81.9064 19.949 81.7677L19.8824 81.7101L17.703 84.2253L16.9178 83.5449L22.8219 76.7313L23.5805 77.3885L22.9001 78.1737L22.9933 78.2544C23.1316 78.2112 23.3156 78.1648 23.545 78.1151C23.7726 78.0676 24.0331 78.074 24.3266 78.1341C24.6182 78.1965 24.9281 78.3699 25.2564 78.6543ZM24.5387 79.2674C24.2238 78.9945 23.8865 78.8459 23.5269 78.8217C23.1654 78.7997 22.8013 78.8861 22.4344 79.0808C22.0657 79.2778 21.7141 79.5693 21.3797 79.9552C21.0492 80.3367 20.8154 80.7186 20.6783 81.1008C20.5394 81.4852 20.5094 81.8514 20.5884 82.1995C20.6655 82.5497 20.8637 82.8632 21.1831 83.14C21.5158 83.4283 21.867 83.5831 22.2368 83.6045C22.6025 83.6262 22.9666 83.5399 23.3293 83.3454C23.6878 83.1512 24.0227 82.8745 24.3341 82.5152C24.6493 82.1514 24.8802 81.7729 25.0268 81.3796C25.1693 80.9866 25.2067 80.6073 25.139 80.2418C25.0671 79.8766 24.867 79.5518 24.5387 79.2674Z" fill="black"/>
<path d="M21.7222 75.3933L16.6119 79.8213L15.9316 79.0361L21.0418 74.6081L21.7222 75.3933ZM15.4143 80.1601C15.5469 80.3131 15.6091 80.4903 15.601 80.6915C15.5909 80.8905 15.5127 81.0534 15.3663 81.1803C15.2199 81.3071 15.0475 81.3614 14.8491 81.343C14.6487 81.3224 14.4822 81.2356 14.3496 81.0826C14.217 80.9296 14.1558 80.7535 14.1658 80.5545C14.174 80.3533 14.2512 80.1893 14.3976 80.0624C14.544 79.9356 14.7174 79.8824 14.9177 79.903C15.1161 79.9213 15.2817 80.007 15.4143 80.1601Z" fill="black"/>
<path d="M15.343 73.8834L18.7649 71.6842L19.3266 72.5582L13.6382 76.214L13.0956 75.3696L13.9844 74.7984L13.9368 74.7243C13.5622 74.7766 13.2 74.7233 12.8502 74.5644C12.4979 74.4071 12.1837 74.1136 11.9076 73.684C11.6601 73.2988 11.5225 72.9111 11.4949 72.5207C11.4648 72.1318 11.5574 71.7548 11.7728 71.3897C11.9857 71.0261 12.3341 70.6888 12.818 70.3778L16.4325 68.0549L16.9942 68.9289L13.4389 71.2137C12.9921 71.5009 12.7185 71.8407 12.6183 72.233C12.5156 72.6269 12.5944 73.0264 12.8546 73.4313C13.0339 73.7103 13.2546 73.9207 13.5168 74.0627C13.7774 74.2022 14.0642 74.2604 14.3772 74.2372C14.6902 74.2139 15.0122 74.096 15.343 73.8834Z" fill="black"/>
<path d="M11.8964 60.9858C11.9964 61.3266 12.0047 61.6621 11.9212 61.9925C11.835 62.3237 11.6758 62.6151 11.4439 62.8668C11.211 63.1156 10.9243 63.29 10.5835 63.3901C10.24 63.4909 9.90445 63.4992 9.57689 63.4149C9.24568 63.3287 8.95567 63.1691 8.70685 62.9363C8.45521 62.7043 8.27936 62.418 8.17932 62.0772C8.07844 61.7337 8.07155 61.3977 8.15865 61.0693C8.24211 60.739 8.40025 60.4494 8.63306 60.2005C8.86222 59.9497 9.14858 59.7739 9.49213 59.673C9.83286 59.573 10.1688 59.5661 10.5 59.6524C10.8304 59.7358 11.1214 59.8935 11.3731 60.1255C11.6211 60.3555 11.7955 60.6423 11.8964 60.9858Z" fill="black"/>
<path d="M2.98422 49.634H12V50.6729L2.98422 50.6729V49.634Z" fill="black"/>
<path d="M12.291 45.2581L5.59801 44.2958L5.74587 43.2674L12.4389 44.2297L12.291 45.2581ZM4.55769 43.6125C4.52887 43.8129 4.43576 43.976 4.27834 44.1016C4.12134 44.2243 3.94698 44.2719 3.75525 44.2443C3.56352 44.2167 3.40963 44.122 3.29356 43.96C3.17791 43.7951 3.1345 43.6125 3.16332 43.412C3.19214 43.2116 3.28504 43.05 3.44204 42.9273C3.59946 42.8017 3.77403 42.7527 3.96576 42.7802C4.15748 42.8078 4.31117 42.904 4.42682 43.0689C4.54289 43.2309 4.58651 43.4121 4.55769 43.6125Z" fill="black"/>
<path d="M9.25463 39.4483L13.1575 40.5943L12.8648 41.5911L6.37689 39.6861L6.65967 38.723L7.67341 39.0207L7.69821 38.9362C7.4134 38.6874 7.2165 38.3788 7.10752 38.0103C6.99572 37.641 7.01176 37.2114 7.15563 36.7214C7.28461 36.2821 7.48759 35.9242 7.76455 35.6477C8.03869 35.3703 8.38426 35.1934 8.80127 35.1171C9.21545 35.0399 9.69851 35.0823 10.2504 35.2443L14.373 36.4548L14.0803 37.4517L10.0253 36.261C9.51563 36.1114 9.07972 36.1271 8.71759 36.3083C8.35264 36.4887 8.10236 36.8098 7.96676 37.2716C7.87333 37.5898 7.85881 37.8945 7.9232 38.1856C7.98842 38.4739 8.1323 38.7287 8.35483 38.9501C8.57736 39.1714 8.87729 39.3375 9.25463 39.4483Z" fill="black"/>
<path d="M12.6689 34.3344L11.4923 33.8164L11.5801 33.6242L10.07 29.6824L10.604 28.5131L12.1938 32.7043L12.1572 32.7844L12.6689 34.3344ZM14.5091 36.2395L6.30804 32.4942L6.73963 31.5492L14.9407 35.2945L14.5091 36.2395ZM16.2939 32.3312L12.1533 33.344L11.8038 32.3713L16.8426 31.1299L16.2939 32.3312Z" fill="black"/>
<path d="M18.3992 29.1454C18.0469 29.6935 17.6221 30.0886 17.1247 30.3306C16.6264 30.5685 16.0897 30.6545 15.5147 30.5884C14.9388 30.5183 14.3595 30.2961 13.7768 29.9216C13.1941 29.5471 12.7488 29.111 12.4409 28.613C12.132 28.111 11.9759 27.5886 11.9725 27.0456C11.9682 26.4986 12.131 25.9684 12.4611 25.4548C12.6515 25.1586 12.8889 24.8977 13.1733 24.6723C13.4577 24.4469 13.7871 24.2871 14.1617 24.1929C14.5337 24.0971 14.9464 24.0955 15.3998 24.188C15.8532 24.2805 16.3453 24.4973 16.8761 24.8385L17.2464 25.0765L14.4285 29.4613L13.673 28.9758L15.9197 25.4797C15.5988 25.2735 15.2711 25.1536 14.9368 25.1202C14.604 25.0842 14.2895 25.1367 13.9931 25.2777C13.6982 25.4161 13.4493 25.6434 13.2462 25.9594C13.0225 26.3075 12.9153 26.6643 12.9247 27.0296C12.9332 27.3909 13.0309 27.7276 13.2176 28.0395C13.4044 28.3514 13.6546 28.6081 13.9682 28.8096L14.4718 29.1333C14.9014 29.4094 15.3132 29.5693 15.7071 29.6132C16.1002 29.653 16.4602 29.5895 16.7871 29.4229C17.1115 29.2546 17.3872 28.9939 17.6141 28.6409C17.7616 28.4113 17.8628 28.1832 17.9176 27.9568C17.9715 27.7263 17.9767 27.5012 17.9331 27.2813C17.8871 27.0598 17.7891 26.8486 17.6392 26.6476L18.4188 25.9555C18.6481 26.2284 18.804 26.5397 18.8864 26.8891C18.9663 27.237 18.9676 27.6042 18.8902 27.9905C18.8104 28.3753 18.6467 28.7603 18.3992 29.1454Z" fill="black"/>
<path d="M21.3457 25.2563C20.9767 25.6822 20.5433 25.9649 20.0457 26.1046C19.5458 26.2423 19.0187 26.2321 18.4644 26.0741C17.9078 25.9142 17.359 25.5997 16.8178 25.1308C16.281 24.6657 15.895 24.17 15.6597 23.6439C15.4244 23.1177 15.3414 22.5972 15.4107 22.0825C15.48 21.5679 15.7011 21.0954 16.074 20.6651C16.3622 20.3324 16.6454 20.1176 16.9235 20.0207C17.2014 19.9197 17.4543 19.8787 17.6825 19.8978C17.9103 19.9127 18.0936 19.9298 18.2323 19.949L18.2899 19.8824L15.7747 17.703L16.4551 16.9178L23.2687 22.8219L22.6115 23.5804L21.8263 22.9001L21.7456 22.9933C21.7888 23.1316 21.8352 23.3156 21.8849 23.545C21.9324 23.7726 21.926 24.0331 21.8659 24.3266C21.8035 24.6182 21.6301 24.9281 21.3457 25.2563ZM20.7326 24.5387C21.0055 24.2238 21.1541 23.8865 21.1783 23.5269C21.2003 23.1654 21.1139 22.8012 20.9192 22.4344C20.7222 22.0657 20.4307 21.7141 20.0448 21.3797C19.6633 21.0492 19.2815 20.8154 18.8992 20.6783C18.5148 20.5394 18.1486 20.5094 17.8005 20.5884C17.4503 20.6655 17.1368 20.8637 16.86 21.1831C16.5717 21.5158 16.4169 21.867 16.3955 22.2368C16.3738 22.6025 16.4601 22.9666 16.6546 23.3293C16.8488 23.6878 17.1255 24.0227 17.4848 24.3341C17.8486 24.6493 18.2271 24.8802 18.6204 25.0268C19.0134 25.1693 19.3927 25.2067 19.7582 25.1389C20.1234 25.0671 20.4482 24.867 20.7326 24.5387Z" fill="black"/>
<path d="M24.6067 21.7222L20.1787 16.6119L20.9639 15.9316L25.3919 21.0418L24.6067 21.7222ZM19.8399 15.4143C19.6869 15.5469 19.5097 15.6091 19.3085 15.601C19.1095 15.5909 18.9466 15.5127 18.8197 15.3663C18.6929 15.2199 18.6386 15.0475 18.657 14.8491C18.6776 14.6487 18.7644 14.4822 18.9174 14.3496C19.0704 14.217 19.2465 14.1558 19.4455 14.1658C19.6467 14.174 19.8107 14.2512 19.9376 14.3976C20.0644 14.544 20.1176 14.7174 20.097 14.9177C20.0787 15.1161 19.993 15.2817 19.8399 15.4143Z" fill="black"/>
<path d="M26.1166 15.343L28.3158 18.7649L27.4418 19.3266L23.786 13.6382L24.6304 13.0955L25.2016 13.9844L25.2757 13.9368C25.2234 13.5622 25.2767 13.2 25.4356 12.8502C25.5929 12.4979 25.8864 12.1837 26.316 11.9076C26.7012 11.6601 27.0889 11.5225 27.4793 11.4949C27.8682 11.4648 28.2452 11.5574 28.6103 11.7728C28.9739 11.9857 29.3112 12.3341 29.6222 12.818L31.9451 16.4325L31.0711 16.9942L28.7863 13.4389C28.4991 12.992 28.1593 12.7185 27.767 12.6183C27.373 12.5156 26.9736 12.5944 26.5687 12.8546C26.2897 13.0339 26.0793 13.2546 25.9373 13.5168C25.7977 13.7774 25.7396 14.0642 25.7628 14.3772C25.7861 14.6902 25.904 15.0121 26.1166 15.343Z" fill="black"/>
<path d="M39.0142 11.8964C38.6734 11.9964 38.3379 12.0047 38.0075 11.9212C37.6763 11.835 37.3849 11.6758 37.1332 11.4439C36.8844 11.211 36.71 10.9243 36.6099 10.5835C36.5091 10.24 36.5008 9.90445 36.5851 9.57689C36.6713 9.24568 36.8309 8.95567 37.0637 8.70684C37.2957 8.4552 37.582 8.27936 37.9228 8.17931C38.2663 8.07844 38.6023 8.07155 38.9307 8.15865C39.261 8.24211 39.5506 8.40024 39.7995 8.63305C40.0503 8.86222 40.2261 9.14858 40.327 9.49212C40.427 9.83285 40.4339 10.1688 40.3476 10.5C40.2642 10.8304 40.1065 11.1214 39.8745 11.373C39.6445 11.621 39.3577 11.7955 39.0142 11.8964Z" fill="black"/>
<path d="M50.366 2.98422V12H49.3271V2.98422H50.366Z" fill="black"/>
<path d="M54.7419 12.291L55.7042 5.59801L56.7326 5.74587L55.7703 12.4389L54.7419 12.291ZM56.3875 4.55769C56.1871 4.52887 56.024 4.43576 55.8984 4.27834C55.7757 4.12134 55.7281 3.94698 55.7557 3.75525C55.7833 3.56352 55.878 3.40963 56.04 3.29356C56.2049 3.17791 56.3875 3.1345 56.588 3.16332C56.7884 3.19214 56.95 3.28504 57.0727 3.44204C57.1983 3.59946 57.2473 3.77403 57.2198 3.96576C57.1922 4.15748 57.096 4.31117 56.9311 4.42682C56.7691 4.54289 56.5879 4.58651 56.3875 4.55769Z" fill="black"/>
<path d="M60.5517 9.25463L59.4057 13.1575L58.4089 12.8648L60.3139 6.37689L61.277 6.65967L60.9793 7.67341L61.0638 7.69821C61.3126 7.4134 61.6212 7.2165 61.9897 7.10752C62.359 6.99572 62.7886 7.01176 63.2786 7.15563C63.7179 7.28461 64.0758 7.48759 64.3523 7.76455C64.6297 8.03869 64.8066 8.38426 64.8829 8.80127C64.9601 9.21545 64.9177 9.69851 64.7557 10.2504L63.5452 14.373L62.5483 14.0803L63.739 10.0253C63.8886 9.51563 63.8729 9.07972 63.6917 8.71759C63.5113 8.35264 63.1902 8.10236 62.7284 7.96676C62.4102 7.87333 62.1055 7.85881 61.8144 7.9232C61.5261 7.98842 61.2713 8.1323 61.0499 8.35483C60.8286 8.57736 60.6625 8.87729 60.5517 9.25463Z" fill="black"/>
<path d="M65.6656 12.6689L66.1836 11.4923L66.3758 11.5801L70.3176 10.07L71.4869 10.604L67.2957 12.1938L67.2156 12.1572L65.6656 12.6689ZM63.7605 14.5091L67.5058 6.30804L68.4508 6.73962L64.7055 14.9407L63.7605 14.5091ZM67.6688 16.2939L66.656 12.1533L67.6287 11.8038L68.8701 16.8426L67.6688 16.2939Z" fill="black"/>
<path d="M70.8546 18.3992C70.3065 18.0469 69.9114 17.6221 69.6694 17.1247C69.4315 16.6264 69.3455 16.0897 69.4116 15.5147C69.4817 14.9388 69.7039 14.3595 70.0784 13.7768C70.4529 13.1941 70.889 12.7488 71.387 12.4409C71.889 12.132 72.4114 11.9759 72.9544 11.9725C73.5014 11.9682 74.0316 12.131 74.5452 12.4611C74.8414 12.6515 75.1023 12.8889 75.3277 13.1733C75.5531 13.4577 75.7129 13.7871 75.8071 14.1617C75.9029 14.5337 75.9045 14.9464 75.812 15.3998C75.7195 15.8532 75.5027 16.3453 75.1615 16.8761L74.9235 17.2464L70.5387 14.4285L71.0242 13.673L74.5203 15.9197C74.7265 15.5988 74.8464 15.2711 74.8798 14.9368C74.9158 14.604 74.8633 14.2895 74.7223 13.9931C74.5839 13.6982 74.3566 13.4493 74.0406 13.2462C73.6925 13.0225 73.3357 12.9153 72.9704 12.9247C72.6091 12.9332 72.2724 13.0309 71.9605 13.2177C71.6486 13.4044 71.3919 13.6546 71.1904 13.9682L70.8667 14.4718C70.5906 14.9014 70.4307 15.3132 70.3868 15.7071C70.347 16.1002 70.4105 16.4602 70.5771 16.7871C70.7454 17.1115 71.0061 17.3872 71.3591 17.6141C71.5887 17.7616 71.8168 17.8628 72.0432 17.9176C72.2737 17.9716 72.4988 17.9767 72.7187 17.9331C72.9402 17.8871 73.1514 17.7891 73.3524 17.6392L74.0445 18.4188C73.7716 18.6481 73.4603 18.804 73.1109 18.8864C72.763 18.9663 72.3958 18.9676 72.0095 18.8902C71.6247 18.8104 71.2397 18.6467 70.8546 18.3992Z" fill="black"/>
<path d="M74.7437 21.3457C74.3178 20.9767 74.0351 20.5433 73.8954 20.0457C73.7577 19.5458 73.7679 19.0187 73.9259 18.4644C74.0858 17.9078 74.4003 17.359 74.8692 16.8178C75.3343 16.281 75.83 15.895 76.3561 15.6597C76.8823 15.4244 77.4028 15.3414 77.9175 15.4107C78.4321 15.48 78.9046 15.7011 79.3349 16.074C79.6676 16.3622 79.8824 16.6454 79.9793 16.9235C80.0803 17.2014 80.1213 17.4543 80.1022 17.6825C80.0873 17.9103 80.0702 18.0936 80.051 18.2323L80.1176 18.2899L82.297 15.7747L83.0822 16.4551L77.1781 23.2687L76.4196 22.6115L77.0999 21.8263L77.0067 21.7456C76.8684 21.7888 76.6844 21.8352 76.455 21.8849C76.2274 21.9324 75.9669 21.926 75.6734 21.8659C75.3818 21.8035 75.0719 21.6301 74.7437 21.3457ZM75.4613 20.7326C75.7762 21.0055 76.1135 21.1541 76.4731 21.1783C76.8346 21.2003 77.1988 21.1139 77.5656 20.9192C77.9343 20.7222 78.2859 20.4307 78.6203 20.0448C78.9508 19.6633 79.1846 19.2814 79.3217 18.8992C79.4606 18.5148 79.4906 18.1486 79.4116 17.8005C79.3345 17.4503 79.1363 17.1368 78.8169 16.86C78.4842 16.5717 78.133 16.4169 77.7632 16.3955C77.3975 16.3738 77.0334 16.4601 76.6707 16.6546C76.3122 16.8488 75.9773 17.1255 75.6659 17.4848C75.3507 17.8486 75.1198 18.2271 74.9732 18.6204C74.8307 19.0134 74.7933 19.3927 74.8611 19.7582C74.9329 20.1234 75.133 20.4482 75.4613 20.7326Z" fill="black"/>
<path d="M78.2778 24.6067L83.3881 20.1787L84.0684 20.9638L78.9582 25.3919L78.2778 24.6067ZM84.5857 19.8399C84.4531 19.6869 84.3909 19.5097 84.399 19.3085C84.4091 19.1095 84.4873 18.9466 84.6337 18.8197C84.7801 18.6929 84.9525 18.6386 85.1509 18.657C85.3513 18.6775 85.5178 18.7644 85.6504 18.9174C85.783 19.0704 85.8442 19.2465 85.8342 19.4455C85.826 19.6467 85.7488 19.8107 85.6024 19.9376C85.456 20.0644 85.2826 20.1176 85.0823 20.097C84.8839 20.0786 84.7183 19.9929 84.5857 19.8399Z" fill="black"/>
<path d="M84.657 26.1166L81.2351 28.3158L80.6734 27.4418L86.3618 23.786L86.9045 24.6304L86.0156 25.2016L86.0632 25.2757C86.4378 25.2234 86.8 25.2767 87.1498 25.4356C87.5021 25.5929 87.8163 25.8864 88.0924 26.316C88.3399 26.7011 88.4775 27.0889 88.5051 27.4793C88.5352 27.8682 88.4426 28.2452 88.2272 28.6103C88.0143 28.9739 87.6659 29.3112 87.182 29.6222L83.5675 31.9451L83.0058 31.0711L86.5611 28.7863C87.008 28.4991 87.2815 28.1593 87.3817 27.767C87.4844 27.373 87.4056 26.9736 87.1454 26.5687C86.9661 26.2897 86.7454 26.0793 86.4832 25.9373C86.2226 25.7977 85.9358 25.7396 85.6228 25.7628C85.3098 25.7861 84.9879 25.904 84.657 26.1166Z" fill="black"/>
<path d="M88.1036 39.0142C88.0036 38.6734 87.9953 38.3379 88.0788 38.0075C88.165 37.6763 88.3242 37.3849 88.5561 37.1332C88.789 36.8844 89.0757 36.71 89.4165 36.6099C89.76 36.5091 90.0956 36.5008 90.4231 36.5851C90.7543 36.6713 91.0443 36.8309 91.2932 37.0637C91.5448 37.2957 91.7206 37.582 91.8207 37.9228C91.9216 38.2663 91.9284 38.6023 91.8413 38.9307C91.7579 39.261 91.5998 39.5506 91.3669 39.7995C91.1378 40.0503 90.8514 40.2261 90.5079 40.327C90.1671 40.427 89.8312 40.4339 89.5 40.3476C89.1696 40.2642 88.8786 40.1065 88.627 39.8745C88.379 39.6445 88.2045 39.3577 88.1036 39.0142Z" fill="black"/>
<path d="M97.0158 50.366H88V49.3271H97.0158V50.366Z" fill="black"/>
<path d="M87.709 54.7419L94.402 55.7042L94.2541 56.7326L87.5611 55.7703L87.709 54.7419ZM95.4423 56.3875C95.4711 56.1871 95.5642 56.024 95.7217 55.8984C95.8787 55.7757 96.053 55.7281 96.2447 55.7557C96.4365 55.7833 96.5904 55.878 96.7064 56.04C96.8221 56.2049 96.8655 56.3875 96.8367 56.588C96.8079 56.7884 96.715 56.95 96.558 57.0727C96.4005 57.1983 96.226 57.2473 96.0342 57.2198C95.8425 57.1922 95.6888 57.096 95.5732 56.9311C95.4571 56.7691 95.4135 56.5879 95.4423 56.3875Z" fill="black"/>
<path d="M90.7454 60.5517L86.8425 59.4057L87.1352 58.4089L93.6231 60.3139L93.3403 61.277L92.3266 60.9793L92.3018 61.0638C92.5866 61.3126 92.7835 61.6212 92.8925 61.9897C93.0043 62.359 92.9882 62.7886 92.8444 63.2786C92.7154 63.7179 92.5124 64.0758 92.2355 64.3523C91.9613 64.6297 91.6157 64.8066 91.1987 64.8829C90.7845 64.9601 90.3015 64.9177 89.7496 64.7557L85.627 63.5452L85.9197 62.5483L89.9747 63.739C90.4844 63.8886 90.9203 63.8729 91.2824 63.6917C91.6474 63.5113 91.8976 63.1902 92.0332 62.7284C92.1267 62.4102 92.1412 62.1055 92.0768 61.8144C92.0116 61.5261 91.8677 61.2713 91.6452 61.0499C91.4226 60.8286 91.1227 60.6625 90.7454 60.5517Z" fill="black"/>
<path d="M87.3311 65.6656L88.5077 66.1836L88.4199 66.3758L89.93 70.3176L89.396 71.4869L87.8062 67.2957L87.8428 67.2156L87.3311 65.6656ZM85.4909 63.7605L93.692 67.5058L93.2604 68.4508L85.0593 64.7055L85.4909 63.7605ZM83.7061 67.6688L87.8467 66.656L88.1962 67.6287L83.1574 68.8701L83.7061 67.6688Z" fill="black"/>
<path d="M81.6008 70.8546C81.9531 70.3065 82.3779 69.9114 82.8753 69.6694C83.3736 69.4315 83.9103 69.3455 84.4853 69.4116C85.0612 69.4817 85.6405 69.7039 86.2232 70.0784C86.8059 70.4529 87.2512 70.889 87.5591 71.387C87.868 71.889 88.0241 72.4114 88.0275 72.9544C88.0318 73.5014 87.869 74.0316 87.5389 74.5452C87.3485 74.8414 87.1111 75.1023 86.8267 75.3277C86.5423 75.5531 86.2129 75.7129 85.8384 75.8071C85.4663 75.9029 85.0536 75.9045 84.6002 75.812C84.1468 75.7195 83.6547 75.5027 83.1239 75.1615L82.7536 74.9235L85.5715 70.5387L86.327 71.0242L84.0803 74.5203C84.4012 74.7265 84.7289 74.8464 85.0632 74.8798C85.396 74.9158 85.7106 74.8633 86.007 74.7223C86.3018 74.5839 86.5507 74.3566 86.7538 74.0406C86.9775 73.6925 87.0847 73.3357 87.0753 72.9704C87.0668 72.6091 86.9691 72.2724 86.7824 71.9605C86.5956 71.6486 86.3454 71.3919 86.0319 71.1904L85.5282 70.8667C85.0986 70.5906 84.6868 70.4307 84.2929 70.3868C83.8998 70.347 83.5399 70.4105 83.2129 70.5771C82.8885 70.7454 82.6128 71.0061 82.3859 71.3591C82.2384 71.5887 82.1372 71.8168 82.0824 72.0432C82.0285 72.2737 82.0233 72.4988 82.0669 72.7187C82.1129 72.9402 82.2109 73.1514 82.3608 73.3524L81.5812 74.0445C81.3519 73.7716 81.1961 73.4603 81.1137 73.1109C81.0337 72.763 81.0324 72.3958 81.1098 72.0095C81.1896 71.6247 81.3533 71.2397 81.6008 70.8546Z" fill="black"/>
<path d="M78.6543 74.7437C79.0233 74.3178 79.4567 74.0351 79.9543 73.8954C80.4542 73.7577 80.9813 73.7679 81.5356 73.9259C82.0922 74.0858 82.641 74.4003 83.1822 74.8692C83.719 75.3343 84.105 75.83 84.3403 76.3561C84.5756 76.8823 84.6586 77.4028 84.5893 77.9175C84.52 78.4321 84.2989 78.9046 83.926 79.3349C83.6378 79.6676 83.3546 79.8824 83.0765 79.9793C82.7986 80.0803 82.5457 80.1213 82.3175 80.1022C82.0897 80.0873 81.9064 80.0702 81.7677 80.051L81.7101 80.1176L84.2253 82.297L83.5449 83.0822L76.7313 77.1781L77.3885 76.4196L78.1737 77.0999L78.2544 77.0067C78.2112 76.8684 78.1648 76.6844 78.1151 76.455C78.0676 76.2274 78.074 75.9669 78.1341 75.6734C78.1965 75.3818 78.3699 75.0719 78.6543 74.7437ZM79.2674 75.4613C78.9945 75.7762 78.8459 76.1135 78.8217 76.4731C78.7997 76.8346 78.8861 77.1988 79.0808 77.5656C79.2778 77.9343 79.5693 78.2859 79.9552 78.6203C80.3367 78.9508 80.7186 79.1846 81.1008 79.3217C81.4852 79.4606 81.8514 79.4906 82.1995 79.4116C82.5497 79.3345 82.8632 79.1363 83.14 78.8169C83.4283 78.4842 83.5831 78.133 83.6045 77.7632C83.6262 77.3975 83.5399 77.0334 83.3454 76.6707C83.1512 76.3122 82.8745 75.9773 82.5152 75.6659C82.1514 75.3507 81.7729 75.1198 81.3796 74.9732C80.9866 74.8307 80.6073 74.7933 80.2418 74.8611C79.8766 74.9329 79.5518 75.133 79.2674 75.4613Z" fill="black"/>
<path d="M75.3933 78.2778L79.8213 83.3881L79.0361 84.0684L74.6081 78.9582L75.3933 78.2778ZM80.1601 84.5857C80.3131 84.4531 80.4903 84.3909 80.6915 84.399C80.8905 84.4091 81.0534 84.4873 81.1803 84.6337C81.3071 84.7801 81.3614 84.9525 81.343 85.1509C81.3224 85.3513 81.2356 85.5178 81.0826 85.6504C80.9296 85.783 80.7535 85.8442 80.5545 85.8342C80.3533 85.826 80.1893 85.7488 80.0624 85.6024C79.9356 85.456 79.8824 85.2826 79.903 85.0823C79.9213 84.8839 80.007 84.7183 80.1601 84.5857Z" fill="black"/>
<path d="M73.8834 84.657L71.6842 81.2351L72.5582 80.6734L76.214 86.3618L75.3696 86.9045L74.7984 86.0156L74.7243 86.0632C74.7766 86.4378 74.7233 86.8 74.5644 87.1498C74.4071 87.5021 74.1136 87.8163 73.684 88.0924C73.2988 88.3399 72.9111 88.4775 72.5207 88.5051C72.1318 88.5352 71.7548 88.4426 71.3897 88.2272C71.0261 88.0143 70.6888 87.6659 70.3778 87.182L68.0549 83.5675L68.9289 83.0058L71.2137 86.5611C71.5009 87.008 71.8407 87.2815 72.233 87.3817C72.6269 87.4844 73.0264 87.4056 73.4313 87.1454C73.7103 86.9661 73.9207 86.7454 74.0627 86.4832C74.2022 86.2226 74.2604 85.9358 74.2372 85.6228C74.2139 85.3098 74.096 84.9879 73.8834 84.657Z" fill="black"/>
<path d="M60.9858 88.1036C61.3266 88.0036 61.6621 87.9953 61.9925 88.0788C62.3237 88.165 62.6151 88.3242 62.8668 88.5561C63.1156 88.789 63.29 89.0757 63.3901 89.4165C63.4909 89.76 63.4992 90.0956 63.4149 90.4231C63.3287 90.7543 63.1691 91.0443 62.9363 91.2932C62.7043 91.5448 62.418 91.7206 62.0772 91.8207C61.7337 91.9216 61.3977 91.9284 61.0693 91.8413C60.739 91.7579 60.4494 91.5998 60.2005 91.3669C59.9497 91.1378 59.7739 90.8514 59.673 90.5079C59.573 90.1671 59.5661 89.8312 59.6524 89.5C59.7358 89.1696 59.8935 88.8786 60.1255 88.627C60.3555 88.379 60.6423 88.2045 60.9858 88.1036Z" fill="black"/>
</svg>
