<svg width="774" height="778" viewBox="0 0 774 778" fill="none" xmlns="http://www.w3.org/2000/svg">
<path d="M204.17 142.121L204.343 154.471C205.598 243.889 302.308 299.186 380.005 254.911L391.171 248.548C464.201 206.932 555.026 259.307 555.589 343.36L555.786 372.754C556.193 433.57 616.19 476.021 673.675 456.167V456.167" stroke="white" stroke-width="0.653416"/>
<path d="M200.071 149.221L200.244 161.571C201.498 250.989 298.209 306.286 375.905 262.011L387.072 255.648C460.101 214.032 550.926 266.407 551.49 350.46L551.687 379.854C552.094 440.67 612.09 483.12 669.575 463.267V463.267" stroke="white" stroke-width="0.653416"/>
<path d="M195.972 156.321L196.146 168.671C197.4 258.088 294.11 313.385 371.807 269.111L382.973 262.748C456.003 221.132 546.828 273.507 547.391 357.56L547.588 386.954C547.995 447.77 607.992 490.22 665.477 470.367V470.367" stroke="white" stroke-width="0.653416"/>
<path d="M191.873 163.421L192.046 175.771C193.3 265.188 290.011 320.485 367.707 276.21L378.873 269.847C451.903 228.232 542.728 280.606 543.291 364.659L543.488 394.054C543.896 454.869 603.892 497.32 661.377 477.467V477.467" stroke="white" stroke-width="0.653416"/>
<path d="M187.774 170.52L187.947 182.871C189.202 272.288 285.912 327.585 363.609 283.31L374.775 276.947C447.805 235.332 538.63 287.706 539.193 371.759L539.39 401.154C539.797 461.969 599.793 504.42 657.279 484.567V484.567" stroke="white" stroke-width="0.653416"/>
<path d="M183.674 177.62L183.847 189.971C185.102 279.388 281.812 334.685 359.509 290.41L370.675 284.047C443.705 242.432 534.53 294.806 535.093 378.859L535.29 408.254C535.697 469.069 595.693 511.52 653.178 491.667V491.667" stroke="white" stroke-width="0.653416"/>
<path d="M179.576 184.72L179.749 197.07C181.003 286.488 277.713 341.785 355.41 297.51L366.576 291.147C439.606 249.532 530.431 301.906 530.994 385.959L531.191 415.354C531.599 476.169 591.595 518.62 649.08 498.767V498.767" stroke="white" stroke-width="0.653416"/>
<path d="M175.477 191.82L175.65 204.17C176.904 293.588 273.614 348.885 351.311 304.61L362.477 298.247C435.507 256.631 526.332 309.006 526.895 393.059L527.092 422.453C527.5 483.269 587.496 525.719 644.981 505.866V505.866" stroke="white" stroke-width="0.653416"/>
<path d="M171.377 198.92L171.55 211.27C172.805 300.688 269.515 355.985 347.212 311.71L358.378 305.347C431.408 263.731 522.233 316.106 522.796 400.159L522.993 429.553C523.4 490.369 583.396 532.82 640.882 512.966V512.966" stroke="white" stroke-width="0.653416"/>
<path d="M167.279 206.02L167.452 218.37C168.706 307.787 265.416 363.084 343.113 318.809L354.279 312.447C427.309 270.831 518.134 323.206 518.697 407.258L518.894 436.653C519.302 497.469 579.298 539.919 636.783 520.066V520.066" stroke="white" stroke-width="0.653416"/>
<path d="M163.179 213.119L163.352 225.47C164.607 314.887 261.317 370.184 339.014 325.909L350.18 319.546C423.209 277.931 514.035 330.305 514.598 414.358L514.795 443.753C515.202 504.568 575.198 547.019 632.683 527.166V527.166" stroke="white" stroke-width="0.653416"/>
<path d="M159.08 220.219L159.253 232.569C160.508 321.987 257.218 377.284 334.915 333.009L346.081 326.646C419.111 285.031 509.936 337.405 510.499 421.458L510.696 450.853C511.103 511.668 571.1 554.119 628.585 534.266V534.266" stroke="white" stroke-width="0.653416"/>
<path d="M154.981 227.319L155.155 239.669C156.409 329.087 253.119 384.384 330.816 340.109L341.982 333.746C415.012 292.13 505.837 344.505 506.4 428.558L506.597 457.952C507.004 518.768 567.001 561.219 624.486 541.365V541.365" stroke="white" stroke-width="0.653416"/>
<path d="M150.882 234.419L151.055 246.769C152.31 336.187 249.02 391.484 326.717 347.209L337.883 340.846C410.913 299.23 501.738 351.605 502.301 435.658L502.498 465.052C502.905 525.868 562.902 568.318 620.387 548.465V548.465" stroke="white" stroke-width="0.653416"/>
<path d="M146.783 241.519L146.956 253.869C148.211 343.287 244.921 398.584 322.618 354.309L333.784 347.946C406.813 306.33 497.639 358.705 498.202 442.758L498.399 472.152C498.806 532.968 558.802 575.418 616.287 555.565V555.565" stroke="white" stroke-width="0.653416"/>
<path d="M142.781 248.451L142.954 260.801C144.208 350.218 240.919 405.515 318.616 361.24L329.782 354.878C402.811 313.262 493.636 365.637 494.2 449.689L494.397 479.084C494.804 539.9 554.8 582.35 612.285 562.497V562.497" stroke="white" stroke-width="0.653416"/>
<path d="M138.779 255.382L138.952 267.733C140.206 357.15 236.917 412.447 314.613 368.172L325.779 361.809C398.809 320.194 489.634 372.568 490.198 456.621L490.394 486.016C490.802 546.831 550.798 589.282 608.283 569.429V569.429" stroke="white" stroke-width="0.653416"/>
<path d="M134.777 262.314L134.95 274.664C136.204 364.082 232.915 419.379 310.611 375.104L321.777 368.741C394.807 327.126 485.632 379.5 486.195 463.553L486.392 492.948C486.8 553.763 546.796 596.214 604.281 576.36V576.36" stroke="white" stroke-width="0.653416"/>
<path d="M130.775 269.246L130.948 281.596C132.202 371.014 228.912 426.311 306.609 382.036L317.775 375.673C390.805 334.057 481.63 386.432 482.193 470.485L482.39 499.879C482.798 560.695 542.794 603.146 600.279 583.292V583.292" stroke="white" stroke-width="0.653416"/>
<path d="M126.773 276.178L126.946 288.528C128.2 377.946 224.91 433.243 302.607 388.968L313.773 382.605C386.803 340.989 477.628 393.364 478.191 477.417L478.388 506.811C478.796 567.627 538.792 610.077 596.277 590.224V590.224" stroke="white" stroke-width="0.653416"/>
<path d="M122.771 283.11L122.944 295.46C124.198 384.877 220.908 440.174 298.605 395.899L309.771 389.536C382.801 347.921 473.626 400.295 474.189 484.348L474.386 513.743C474.794 574.558 534.79 617.009 592.275 597.156V597.156" stroke="white" stroke-width="0.653416"/>
<path d="M118.768 290.041L118.942 302.392C120.196 391.809 216.906 447.106 294.603 402.831L305.769 396.468C378.799 354.853 469.624 407.227 470.187 491.28L470.384 520.675C470.791 581.49 530.788 623.941 588.273 604.088V604.088" stroke="white" stroke-width="0.653416"/>
<path d="M114.766 296.973L114.94 309.323C116.194 398.741 212.904 454.038 290.601 409.763L301.767 403.4C374.797 361.785 465.622 414.159 466.185 498.212L466.382 527.607C466.789 588.422 526.786 630.873 584.271 611.019V611.019" stroke="white" stroke-width="0.653416"/>
<path d="M110.764 303.905L110.938 316.255C112.192 405.673 208.902 460.97 286.599 416.695L297.765 410.332C370.795 368.716 461.62 421.091 462.183 505.144L462.38 534.538C462.787 595.354 522.784 637.805 580.269 617.951V617.951" stroke="white" stroke-width="0.653416"/>
<path d="M106.762 310.837L106.936 323.187C108.19 412.604 204.9 467.901 282.597 423.626L293.763 417.264C366.793 375.648 457.618 428.023 458.181 512.075L458.378 541.47C458.785 602.286 518.782 644.736 576.267 624.883V624.883" stroke="white" stroke-width="0.653416"/>
<path d="M102.76 317.769L102.933 330.119C104.188 419.536 200.898 474.833 278.595 430.558L289.761 424.195C362.791 382.58 453.616 434.954 454.179 519.007L454.376 548.402C454.783 609.217 514.78 651.668 572.265 631.815V631.815" stroke="white" stroke-width="0.653416"/>
<path d="M98.7581 324.7L98.9314 337.05C100.186 426.468 196.896 481.765 274.593 437.49L285.759 431.127C358.789 389.512 449.614 441.886 450.177 525.939L450.374 555.334C450.781 616.149 510.777 658.6 568.263 638.747V638.747" stroke="white" stroke-width="0.653416"/>
<path d="M94.7561 331.632L94.9293 343.982C96.1836 433.4 192.894 488.697 270.591 444.422L281.757 438.059C354.787 396.444 445.612 448.818 446.175 532.871L446.372 562.265C446.779 623.081 506.775 665.532 564.26 645.678V645.678" stroke="white" stroke-width="0.653416"/>
<path d="M90.754 338.564L90.9272 350.914C92.1815 440.332 188.892 495.629 266.589 451.354L277.755 444.991C350.784 403.375 441.61 455.75 442.173 539.803L442.37 569.197C442.777 630.013 502.773 672.464 560.258 652.61V652.61" stroke="white" stroke-width="0.653416"/>
</svg>
