<svg width="100" height="100" viewBox="0 0 100 100" fill="none" xmlns="http://www.w3.org/2000/svg">
<path d="M51.3347 88V94.7618H50.331V93.7405H50.2605C50.1373 94.0751 49.9142 94.3466 49.5914 94.5549C49.2686 94.7633 48.9046 94.8675 48.4996 94.8675C48.4233 94.8675 48.328 94.866 48.2135 94.8631C48.099 94.8602 48.0125 94.8557 47.9538 94.8499V93.7933C47.989 93.8021 48.0697 93.8154 48.1959 93.833C48.3191 93.8535 48.4497 93.8638 48.5877 93.8638C48.9164 93.8638 49.2099 93.7948 49.4681 93.6569C49.7235 93.5219 49.926 93.334 50.0756 93.0934C50.2224 92.8557 50.2958 92.5842 50.2958 92.279V88H51.3347Z" fill="black"/>
<path d="M42.9735 87.2042C43.6152 87.3173 44.1437 87.5566 44.5591 87.9219C44.971 88.2895 45.2577 88.7513 45.4189 89.3072C45.5767 89.8655 45.5955 90.4857 45.4753 91.1678C45.355 91.8499 45.1247 92.4292 44.7844 92.9056C44.4407 93.3844 44.0191 93.7302 43.5197 93.9431C43.0168 94.1585 42.4648 94.2131 41.8636 94.1071C41.5168 94.0459 41.1845 93.9277 40.8667 93.7525C40.549 93.5773 40.2743 93.3351 40.0427 93.0261C39.8106 92.7199 39.6496 92.3399 39.5598 91.886C39.47 91.4321 39.4798 90.8944 39.5894 90.273L39.6658 89.8395L44.7989 90.7446L44.643 91.629L40.5504 90.9074C40.4841 91.2831 40.5002 91.6316 40.5985 91.9529C40.6939 92.2737 40.8639 92.5436 41.1084 92.7625C41.35 92.9809 41.6558 93.1228 42.0257 93.188C42.4332 93.2599 42.8037 93.2209 43.137 93.0711C43.467 92.9236 43.7398 92.7035 43.9553 92.4107C44.1708 92.1179 44.311 91.788 44.3757 91.4209L44.4796 90.8313C44.5683 90.3284 44.5568 89.8868 44.445 89.5065C44.3299 89.1286 44.1323 88.8211 43.8522 88.584C43.5717 88.3497 43.2248 88.1962 42.8115 88.1233C42.5427 88.0759 42.2933 88.0707 42.0633 88.1076C41.8298 88.1469 41.6201 88.2291 41.4342 88.3543C41.2477 88.4823 41.0907 88.6543 40.9632 88.8702L40.0237 88.4185C40.1869 88.1016 40.4137 87.8376 40.7042 87.6266C40.9942 87.4184 41.3324 87.2754 41.7186 87.1975C42.1043 87.1225 42.5227 87.1247 42.9735 87.2042Z" fill="black"/>
<path d="M32.6748 89.7171L33.6421 89.7881C33.6441 89.9544 33.6737 90.126 33.7311 90.303C33.7847 90.4818 33.8859 90.6498 34.0348 90.8071C34.1837 90.9644 34.4002 91.0947 34.6843 91.1981C35.0731 91.3396 35.4298 91.3679 35.7543 91.283C36.075 91.1999 36.285 91.0218 36.3844 90.7487C36.4727 90.5061 36.4542 90.2823 36.3289 90.0774C36.2036 89.8725 35.9705 89.6549 35.6296 89.4246L34.7707 88.8497C34.2528 88.505 33.9062 88.14 33.7311 87.7545C33.5549 87.3718 33.5477 86.9585 33.7093 86.5145C33.8418 86.1505 34.065 85.8632 34.379 85.6526C34.6902 85.4411 35.0621 85.3204 35.4946 85.2904C35.9272 85.2604 36.3903 85.3353 36.8839 85.515C37.532 85.7509 38.0172 86.0867 38.3395 86.5226C38.6619 86.9585 38.7812 87.4673 38.6975 88.049L37.6866 87.9434C37.7228 87.5693 37.6493 87.2521 37.4661 86.9917C37.2801 86.7304 36.9872 86.527 36.5873 86.3814C36.1322 86.2158 35.7358 86.1808 35.3981 86.2765C35.0565 86.374 34.8361 86.5592 34.7367 86.8322C34.6564 87.0528 34.6664 87.2657 34.7666 87.4709C34.8658 87.6788 35.0618 87.8782 35.3547 88.069L36.3233 88.7027C36.855 89.0524 37.2047 89.4217 37.3723 89.8107C37.5362 90.2013 37.5383 90.6159 37.3787 91.0544C37.2483 91.413 37.0322 91.6935 36.7305 91.896C36.426 92.0975 36.07 92.2131 35.6626 92.2428C35.2524 92.2715 34.8239 92.2046 34.3771 92.042C33.7483 91.8131 33.3049 91.4955 33.0467 91.0893C32.7858 90.682 32.6618 90.2246 32.6748 89.7171Z" fill="black"/>
<path d="M27.9795 84.3574L25.9809 87.8191L25.0811 87.2996L28.462 81.4437L29.3618 81.9631L28.7895 82.9544L28.8505 82.9896C29.1594 82.7715 29.5189 82.6418 29.929 82.6007C30.3376 82.5621 30.763 82.6705 31.2053 82.9258C31.5713 83.1371 31.8504 83.405 32.0426 83.7295C32.2333 84.0565 32.3161 84.4296 32.291 84.8489C32.2643 85.2707 32.1072 85.7306 31.8196 86.2288L29.6713 89.9497L28.7716 89.4303L30.8846 85.7703C31.1312 85.3433 31.2083 84.9338 31.1162 84.5417C31.0215 84.1481 30.7873 83.8435 30.4137 83.6278C30.19 83.4986 29.9295 83.4245 29.6322 83.4053C29.3323 83.3847 29.0354 83.4471 28.7413 83.5925C28.4447 83.7364 28.1908 83.9914 27.9795 84.3574Z" fill="black"/>
<path d="M28.8744 81.879L24.528 87.0589L23.7591 86.4137L24.4382 85.6043L24.3708 85.5477C24.0308 85.7337 23.6764 85.8022 23.3076 85.7532C22.9368 85.7065 22.5829 85.5417 22.2456 85.2587C21.9039 84.9719 21.6846 84.6557 21.5877 84.3101C21.4867 83.9648 21.4881 83.6001 21.592 83.2161L21.538 83.1708C21.1809 83.327 20.8036 83.3725 20.4063 83.3073C20.0071 83.2443 19.622 83.0572 19.251 82.7459C18.7879 82.3573 18.5308 81.8944 18.4796 81.3573C18.4265 80.8224 18.6556 80.2503 19.1669 79.641L22.0758 76.1743L22.8717 76.8421L19.9627 80.3088C19.642 80.691 19.5174 81.0519 19.5887 81.3915C19.6601 81.731 19.8374 82.0197 20.1207 82.2574C20.4849 82.563 20.8595 82.6896 21.2445 82.6371C21.6276 82.587 21.9596 82.3944 22.2407 82.0594L25.0704 78.6871L25.8798 79.3662L22.9029 82.9139C22.6558 83.2084 22.5523 83.5258 22.5925 83.866C22.6308 84.2084 22.8006 84.506 23.1018 84.7588C23.3087 84.9324 23.5482 85.0395 23.8205 85.0803C24.0906 85.1192 24.3627 85.087 24.637 84.9839C24.9072 84.8811 25.1488 84.7026 25.362 84.4486L28.0785 81.2112L28.8744 81.879Z" fill="black"/>
<path d="M20.703 73.9835C21.1218 74.4826 21.3729 75.0056 21.4563 75.5525C21.5356 76.0989 21.4583 76.6369 21.2245 77.1664C20.9865 77.6955 20.6023 78.1827 20.0717 78.6279C19.5411 79.0731 18.9924 79.3688 18.4255 79.5151C17.8544 79.6609 17.3092 79.6549 16.7897 79.4969C16.2661 79.3386 15.8081 79.0257 15.4157 78.558C15.1893 78.2883 15.0107 77.9841 14.8799 77.6456C14.7492 77.3071 14.6944 76.9451 14.7156 76.5595C14.7346 76.1757 14.8556 75.7811 15.0785 75.3757C15.3015 74.9702 15.6547 74.5647 16.138 74.1591L16.4753 73.8761L19.8256 77.869L19.1377 78.4462L16.4664 75.2628C16.1742 75.508 15.9624 75.7853 15.8312 76.0946C15.6981 76.4017 15.6548 76.7177 15.7014 77.0425C15.7461 77.3652 15.8892 77.6704 16.1306 77.9582C16.3966 78.2751 16.7054 78.4834 17.0571 78.5829C17.4047 78.6821 17.7551 78.6888 18.1084 78.603C18.4617 78.5173 18.7811 78.3546 19.0667 78.115L19.5253 77.7302C19.9165 77.4019 20.1915 77.0562 20.3503 76.6931C20.505 76.3296 20.5513 75.967 20.4892 75.6053C20.4249 75.2456 20.2578 74.9049 19.9881 74.5834C19.8126 74.3744 19.6249 74.21 19.425 74.0905C19.2209 73.9705 19.0074 73.8987 18.7845 73.8751C18.5594 73.8533 18.3286 73.8841 18.0921 73.9676L17.6628 73.0176C17.9915 72.8797 18.3349 72.8233 18.6931 72.8484C19.0491 72.8754 19.4 72.9832 19.746 73.1718C20.0897 73.3622 20.4087 73.6328 20.703 73.9835Z" fill="black"/>
<path d="M12.6698 63.3804C12.7913 63.7141 12.8209 64.0484 12.7585 64.3834C12.6934 64.7195 12.5531 65.0204 12.3375 65.2862C12.121 65.5493 11.8459 65.7416 11.5122 65.863C11.1757 65.9855 10.8413 66.0151 10.5091 65.9517C10.1731 65.8866 9.87354 65.7458 9.61045 65.5292C9.3446 65.3137 9.15095 65.0391 9.0295 64.7054C8.90704 64.3689 8.87886 64.0341 8.94495 63.7008C9.00729 63.3658 9.14674 63.0667 9.3633 62.8037C9.5761 62.5388 9.85072 62.3452 10.1872 62.2227C10.5209 62.1013 10.8557 62.0731 11.1917 62.1382C11.5267 62.2005 11.8272 62.3394 12.093 62.555C12.3551 62.7688 12.5474 63.0439 12.6698 63.3804Z" fill="black"/>
<path d="M12 51.3347L5.23817 51.3347L5.23817 50.331H6.25949V50.2605C5.92492 50.1373 5.65344 49.9142 5.44507 49.5914C5.2367 49.2686 5.13251 48.9046 5.13251 48.4996C5.13251 48.4233 5.13398 48.328 5.13692 48.2135C5.13985 48.099 5.14425 48.0125 5.15012 47.9538H6.20666C6.19785 47.989 6.18465 48.0697 6.16704 48.1959C6.14649 48.3191 6.13622 48.4497 6.13622 48.5877C6.13622 48.9164 6.20519 49.2099 6.34313 49.4681C6.47813 49.7235 6.66596 49.926 6.90661 50.0756C7.14433 50.2224 7.41581 50.2958 7.72103 50.2958H12V51.3347Z" fill="black"/>
<path d="M12.7958 42.9735C12.6827 43.6152 12.4434 44.1437 12.0781 44.5591C11.7105 44.971 11.2487 45.2577 10.6928 45.4189C10.1345 45.5767 9.51429 45.5955 8.83219 45.4753C8.1501 45.355 7.57084 45.1247 7.09443 44.7844C6.61563 44.4407 6.26977 44.0191 6.05685 43.5197C5.84155 43.0168 5.7869 42.4648 5.8929 41.8636C5.95406 41.5168 6.07225 41.1845 6.24749 40.8667C6.42272 40.549 6.66486 40.2743 6.97391 40.0427C7.28007 39.8106 7.6601 39.6496 8.11401 39.5598C8.56793 39.47 9.10558 39.4798 9.72699 39.5894L10.1605 39.6658L9.25542 44.7989L8.37101 44.643L9.09264 40.5504C8.71691 40.4841 8.36839 40.5002 8.04709 40.5985C7.72629 40.6939 7.45643 40.8639 7.23749 41.1084C7.01906 41.35 6.87723 41.6558 6.812 42.0257C6.74014 42.4332 6.77912 42.8037 6.92895 43.137C7.07639 43.467 7.29651 43.7398 7.5893 43.9553C7.88208 44.1708 8.21201 44.311 8.57907 44.3757L9.16867 44.4796C9.67158 44.5683 10.1132 44.5568 10.4935 44.445C10.8714 44.3299 11.1789 44.1323 11.416 43.8522C11.6503 43.5717 11.8038 43.2248 11.8767 42.8115C11.9241 42.5427 11.9293 42.2933 11.8924 42.0633C11.8531 41.8298 11.7709 41.6201 11.6457 41.4342C11.5177 41.2477 11.3457 41.0907 11.1298 40.9632L11.5815 40.0237C11.8984 40.1869 12.1624 40.4137 12.3734 40.7042C12.5816 40.9942 12.7246 41.3324 12.8025 41.7186C12.8775 42.1043 12.8753 42.5227 12.7958 42.9735Z" fill="black"/>
<path d="M10.2829 32.6748L10.2119 33.6421C10.0456 33.6441 9.87401 33.6737 9.69697 33.7311C9.51818 33.7847 9.35015 33.8859 9.19289 34.0348C9.03564 34.1837 8.90531 34.4002 8.80193 34.6843C8.66039 35.0731 8.63208 35.4298 8.71699 35.7543C8.80014 36.075 8.97823 36.285 9.25125 36.3844C9.49394 36.4727 9.71773 36.4542 9.92262 36.3289C10.1275 36.2036 10.3451 35.9705 10.5754 35.6296L11.1503 34.7707C11.495 34.2528 11.86 33.9062 12.2455 33.7311C12.6282 33.5549 13.0415 33.5477 13.4855 33.7093C13.8495 33.8418 14.1368 34.065 14.3474 34.379C14.5589 34.6902 14.6796 35.0621 14.7096 35.4946C14.7396 35.9272 14.6647 36.3903 14.485 36.8839C14.2491 37.532 13.9133 38.0172 13.4774 38.3395C13.0415 38.6619 12.5327 38.7812 11.951 38.6975L12.0566 37.6866C12.4307 37.7228 12.7479 37.6493 13.0083 37.4661C13.2696 37.2801 13.473 36.9872 13.6186 36.5873C13.7842 36.1322 13.8192 35.7358 13.7235 35.3981C13.626 35.0565 13.4408 34.8361 13.1678 34.7367C12.9472 34.6564 12.7343 34.6664 12.5291 34.7666C12.3212 34.8658 12.1218 35.0618 11.931 35.3547L11.2973 36.3233C10.9476 36.855 10.5783 37.2047 10.1893 37.3723C9.79865 37.5362 9.38405 37.5383 8.94556 37.3787C8.58704 37.2483 8.30653 37.0322 8.10402 36.7305C7.90251 36.426 7.7869 36.07 7.75718 35.6626C7.72847 35.2524 7.79542 34.8239 7.95803 34.3771C8.18689 33.7483 8.50446 33.3049 8.91073 33.0467C9.31801 32.7858 9.77539 32.6618 10.2829 32.6748Z" fill="black"/>
<path d="M15.6426 27.9795L12.1809 25.9809L12.7004 25.0811L18.5563 28.462L18.0369 29.3618L17.0456 28.7895L17.0104 28.8505C17.2285 29.1594 17.3582 29.5189 17.3993 29.929C17.4379 30.3376 17.3295 30.763 17.0742 31.2053C16.8629 31.5713 16.595 31.8504 16.2705 32.0426C15.9435 32.2333 15.5704 32.3161 15.1511 32.291C14.7293 32.2643 14.2694 32.1072 13.7712 31.8196L10.0503 29.6713L10.5697 28.7716L14.2297 30.8847C14.6567 31.1312 15.0662 31.2084 15.4583 31.1162C15.8519 31.0215 16.1565 30.7873 16.3722 30.4137C16.5014 30.19 16.5755 29.9295 16.5947 29.6322C16.6153 29.3323 16.5529 29.0354 16.4075 28.7413C16.2636 28.4447 16.0086 28.1908 15.6426 27.9795Z" fill="black"/>
<path d="M18.121 28.8744L12.9411 24.528L13.5863 23.7591L14.3957 24.4382L14.4523 24.3708C14.2663 24.0308 14.1978 23.6764 14.2468 23.3076C14.2935 22.9369 14.4583 22.5829 14.7413 22.2456C15.0281 21.9039 15.3443 21.6846 15.6899 21.5877C16.0352 21.4867 16.3999 21.4881 16.7839 21.592L16.8292 21.538C16.673 21.1809 16.6275 20.8037 16.6927 20.4063C16.7557 20.0071 16.9428 19.622 17.2541 19.251C17.6427 18.7879 18.1056 18.5308 18.6427 18.4796C19.1776 18.4266 19.7497 18.6556 20.359 19.1669L23.8257 22.0758L23.1579 22.8717L19.6912 19.9627C19.309 19.642 18.9481 19.5174 18.6085 19.5888C18.269 19.6601 17.9803 19.8374 17.7426 20.1207C17.437 20.4849 17.3104 20.8595 17.3629 21.2445C17.413 21.6276 17.6056 21.9596 17.9406 22.2407L21.3129 25.0704L20.6338 25.8798L17.0861 22.9029C16.7916 22.6558 16.4742 22.5523 16.134 22.5925C15.7916 22.6308 15.494 22.8006 15.2412 23.1018C15.0676 23.3087 14.9605 23.5482 14.9197 23.8205C14.8808 24.0906 14.913 24.3627 15.0161 24.637C15.1189 24.9072 15.2974 25.1488 15.5514 25.362L18.7888 28.0785L18.121 28.8744Z" fill="black"/>
<path d="M26.0165 20.703C25.5174 21.1218 24.9944 21.3729 24.4475 21.4563C23.9011 21.5356 23.3631 21.4583 22.8336 21.2245C22.3045 20.9865 21.8173 20.6023 21.3721 20.0717C20.9269 19.5411 20.6312 18.9924 20.4849 18.4255C20.3391 17.8544 20.3451 17.3092 20.5031 16.7897C20.6614 16.2661 20.9743 15.8081 21.442 15.4157C21.7117 15.1893 22.0159 15.0107 22.3544 14.88C22.6929 14.7492 23.0549 14.6944 23.4405 14.7156C23.8243 14.7346 24.2189 14.8556 24.6243 15.0785C25.0298 15.3015 25.4353 15.6547 25.8409 16.138L26.1239 16.4753L22.131 19.8256L21.5538 19.1377L24.7372 16.4664C24.492 16.1742 24.2147 15.9624 23.9054 15.8312C23.5983 15.6981 23.2823 15.6548 22.9575 15.7014C22.6348 15.7461 22.3296 15.8892 22.0418 16.1306C21.7249 16.3966 21.5166 16.7055 21.4171 17.0571C21.3179 17.4047 21.3112 17.7551 21.397 18.1084C21.4827 18.4617 21.6454 18.7811 21.885 19.0667L22.2698 19.5253C22.5981 19.9165 22.9438 20.1915 23.3069 20.3503C23.6704 20.5051 24.033 20.5514 24.3947 20.4893C24.7544 20.4249 25.0951 20.2578 25.4166 19.9881C25.6256 19.8126 25.79 19.625 25.9095 19.425C26.0295 19.2209 26.1013 19.0074 26.1249 18.7845C26.1467 18.5594 26.1159 18.3286 26.0324 18.0921L26.9824 17.6628C27.1203 17.9915 27.1767 18.3349 27.1516 18.6931C27.1246 19.0491 27.0168 19.4 26.8282 19.746C26.6378 20.0897 26.3672 20.4087 26.0165 20.703Z" fill="black"/>
<path d="M36.6196 12.6698C36.2859 12.7913 35.9516 12.8209 35.6166 12.7585C35.2805 12.6934 34.9796 12.5531 34.7138 12.3375C34.4507 12.121 34.2584 11.8459 34.137 11.5122C34.0145 11.1757 33.9849 10.8413 34.0483 10.5091C34.1134 10.1731 34.2542 9.87354 34.4708 9.61045C34.6863 9.3446 34.9609 9.15095 35.2946 9.0295C35.6311 8.90704 35.9659 8.87886 36.2992 8.94495C36.6342 9.00729 36.9333 9.14674 37.1963 9.3633C37.4612 9.5761 37.6548 9.85072 37.7773 10.1872C37.8987 10.5209 37.9269 10.8557 37.8618 11.1917C37.7995 11.5267 37.6606 11.8272 37.445 12.093C37.2312 12.3551 36.9561 12.5474 36.6196 12.6698Z" fill="black"/>
<path d="M48.6653 12V5.23817L49.669 5.23817V6.25949H49.7395C49.8627 5.92492 50.0858 5.65344 50.4086 5.44507C50.7314 5.2367 51.0954 5.13251 51.5004 5.13251C51.5767 5.13251 51.672 5.13398 51.7865 5.13692C51.901 5.13985 51.9875 5.14425 52.0462 5.15012V6.20666C52.011 6.19785 51.9303 6.18465 51.8041 6.16704C51.6809 6.14649 51.5503 6.13622 51.4123 6.13622C51.0836 6.13622 50.7901 6.20519 50.5319 6.34313C50.2765 6.47813 50.074 6.66596 49.9244 6.90661C49.7776 7.14433 49.7042 7.41581 49.7042 7.72103V12H48.6653Z" fill="black"/>
<path d="M57.0265 12.7958C56.3848 12.6827 55.8563 12.4434 55.4409 12.0781C55.029 11.7105 54.7423 11.2487 54.5811 10.6928C54.4233 10.1345 54.4045 9.51429 54.5247 8.83219C54.645 8.1501 54.8753 7.57084 55.2156 7.09443C55.5593 6.61563 55.9809 6.26977 56.4803 6.05685C56.9832 5.84155 57.5352 5.7869 58.1364 5.8929C58.4832 5.95406 58.8155 6.07225 59.1333 6.24749C59.451 6.42272 59.7257 6.66486 59.9573 6.97391C60.1894 7.28007 60.3504 7.6601 60.4402 8.11401C60.53 8.56793 60.5202 9.10558 60.4106 9.72699L60.3342 10.1605L55.2011 9.25542L55.357 8.37101L59.4496 9.09264C59.5159 8.71691 59.4998 8.36839 59.4015 8.04709C59.3061 7.72629 59.1361 7.45643 58.8916 7.23749C58.65 7.01906 58.3442 6.87723 57.9743 6.812C57.5668 6.74014 57.1963 6.77912 56.863 6.92895C56.533 7.07639 56.2602 7.29651 56.0447 7.5893C55.8292 7.88208 55.689 8.21201 55.6243 8.57907L55.5204 9.16867C55.4317 9.67158 55.4432 10.1132 55.555 10.4935C55.6701 10.8714 55.8677 11.1789 56.1478 11.416C56.4283 11.6503 56.7752 11.8038 57.1885 11.8767C57.4573 11.9241 57.7067 11.9293 57.9367 11.8924C58.1702 11.8531 58.3799 11.7709 58.5658 11.6457C58.7523 11.5177 58.9093 11.3457 59.0368 11.1298L59.9763 11.5815C59.8131 11.8984 59.5863 12.1624 59.2958 12.3734C59.0058 12.5816 58.6676 12.7246 58.2814 12.8025C57.8957 12.8775 57.4773 12.8753 57.0265 12.7958Z" fill="black"/>
<path d="M67.3252 10.2829L66.3579 10.2119C66.3559 10.0456 66.3263 9.874 66.2689 9.69696C66.2153 9.51817 66.1141 9.35014 65.9652 9.19289C65.8163 9.03563 65.5998 8.90531 65.3157 8.80192C64.9269 8.66039 64.5702 8.63207 64.2457 8.71698C63.925 8.80013 63.715 8.97822 63.6156 9.25124C63.5273 9.49393 63.5458 9.71772 63.6711 9.92261C63.7964 10.1275 64.0295 10.3451 64.3704 10.5754L65.2293 11.1503C65.7472 11.495 66.0938 11.86 66.2689 12.2455C66.4451 12.6282 66.4523 13.0415 66.2907 13.4855C66.1582 13.8495 65.935 14.1368 65.621 14.3474C65.3098 14.5589 64.9379 14.6796 64.5054 14.7096C64.0728 14.7396 63.6097 14.6647 63.1161 14.485C62.468 14.2491 61.9828 13.9133 61.6605 13.4774C61.3382 13.0415 61.2188 12.5327 61.3025 11.951L62.3134 12.0566C62.2772 12.4307 62.3507 12.7479 62.5339 13.0082C62.7199 13.2696 63.0128 13.473 63.4127 13.6186C63.8678 13.7842 64.2642 13.8191 64.6019 13.7235C64.9435 13.626 65.1639 13.4408 65.2633 13.1678C65.3436 12.9471 65.3336 12.7343 65.2334 12.5291C65.1342 12.3212 64.9382 12.1218 64.6454 11.9309L63.6767 11.2973C63.145 10.9476 62.7953 10.5783 62.6277 10.1893C62.4638 9.79864 62.4617 9.38405 62.6213 8.94555C62.7518 8.58703 62.9678 8.30652 63.2695 8.10401C63.574 7.90251 63.93 7.7869 64.3374 7.75718C64.7476 7.72846 65.1761 7.79541 65.6229 7.95802C66.2517 8.18688 66.6951 8.50445 66.9533 8.91072C67.2142 9.318 67.3382 9.77538 67.3252 10.2829Z" fill="black"/>
<path d="M72.0205 15.6427L74.0191 12.181L74.9189 12.7004L71.538 18.5563L70.6382 18.0369L71.2105 17.0456L71.1495 17.0104C70.8406 17.2285 70.4811 17.3582 70.071 17.3993C69.6624 17.4379 69.237 17.3295 68.7947 17.0742C68.4287 16.8629 68.1496 16.595 67.9574 16.2705C67.7667 15.9435 67.6839 15.5704 67.709 15.1511C67.7357 14.7294 67.8928 14.2694 68.1804 13.7712L70.3287 10.0503L71.2284 10.5697L69.1154 14.2297C68.8688 14.6567 68.7917 15.0662 68.8838 15.4583C68.9785 15.8519 69.2127 16.1565 69.5863 16.3722C69.81 16.5014 70.0705 16.5755 70.3678 16.5947C70.6677 16.6153 70.9646 16.5529 71.2587 16.4075C71.5553 16.2636 71.8092 16.0086 72.0205 15.6427Z" fill="black"/>
<path d="M71.1256 18.121L75.472 12.9411L76.2409 13.5863L75.5618 14.3957L75.6292 14.4523C75.9692 14.2663 76.3236 14.1978 76.6924 14.2468C77.0631 14.2935 77.4171 14.4583 77.7544 14.7413C78.0961 15.0281 78.3154 15.3443 78.4123 15.6899C78.5133 16.0352 78.5119 16.3999 78.408 16.7839L78.462 16.8292C78.8191 16.673 79.1963 16.6275 79.5937 16.6927C79.9929 16.7557 80.378 16.9428 80.749 17.2541C81.2121 17.6427 81.4692 18.1056 81.5204 18.6427C81.5734 19.1776 81.3444 19.7497 80.8331 20.359L77.9242 23.8257L77.1283 23.1579L80.0373 19.6912C80.358 19.309 80.4826 18.9481 80.4112 18.6085C80.3399 18.269 80.1626 17.9803 79.8793 17.7426C79.5151 17.437 79.1405 17.3104 78.7555 17.3629C78.3724 17.413 78.0404 17.6056 77.7593 17.9406L74.9296 21.3129L74.1202 20.6338L77.0971 17.0861C77.3442 16.7916 77.4477 16.4742 77.4075 16.134C77.3692 15.7916 77.1994 15.494 76.8982 15.2412C76.6913 15.0676 76.4518 14.9605 76.1795 14.9197C75.9094 14.8808 75.6373 14.913 75.363 15.0161C75.0928 15.1189 74.8512 15.2974 74.638 15.5514L71.9215 18.7888L71.1256 18.121Z" fill="black"/>
<path d="M79.297 26.0164C78.8782 25.5173 78.6271 24.9944 78.5437 24.4475C78.4644 23.9011 78.5417 23.3631 78.7755 22.8336C79.0135 22.3044 79.3977 21.8173 79.9283 21.3721C80.4589 20.9269 81.0076 20.6311 81.5745 20.4849C82.1456 20.3391 82.6908 20.3451 83.2103 20.5031C83.7339 20.6614 84.1919 20.9743 84.5843 21.4419C84.8107 21.7117 84.9893 22.0159 85.1201 22.3544C85.2508 22.6929 85.3056 23.0549 85.2844 23.4405C85.2654 23.8243 85.1444 24.2188 84.9215 24.6243C84.6985 25.0298 84.3453 25.4353 83.862 25.8409L83.5247 26.1238L80.1744 22.131L80.8623 21.5538L83.5336 24.7372C83.8258 24.492 84.0376 24.2147 84.1688 23.9054C84.3019 23.5983 84.3452 23.2823 84.2986 22.9574C84.2539 22.6348 84.1108 22.3296 83.8694 22.0418C83.6034 21.7248 83.2946 21.5166 82.9429 21.4171C82.5953 21.3179 82.2449 21.3112 81.8916 21.397C81.5383 21.4827 81.2189 21.6454 80.9333 21.885L80.4747 22.2698C80.0835 22.598 79.8085 22.9437 79.6497 23.3069C79.495 23.6704 79.4487 24.033 79.5108 24.3947C79.5751 24.7544 79.7422 25.0951 80.0119 25.4165C80.1874 25.6256 80.3751 25.79 80.575 25.9095C80.7791 26.0295 80.9926 26.1013 81.2155 26.1249C81.4406 26.1467 81.6714 26.1159 81.9079 26.0324L82.3372 26.9824C82.0085 27.1203 81.6651 27.1767 81.3069 27.1516C80.9509 27.1246 80.6 27.0168 80.254 26.8282C79.9103 26.6378 79.5913 26.3672 79.297 26.0164Z" fill="black"/>
<path d="M87.3302 36.6196C87.2087 36.2859 87.1791 35.9516 87.2415 35.6166C87.3066 35.2805 87.4469 34.9796 87.6625 34.7138C87.879 34.4507 88.1541 34.2584 88.4878 34.137C88.8243 34.0145 89.1587 33.9849 89.4909 34.0483C89.8269 34.1134 90.1265 34.2542 90.3895 34.4708C90.6554 34.6863 90.849 34.9609 90.9705 35.2946C91.093 35.6311 91.1211 35.9659 91.055 36.2992C90.9927 36.6342 90.8533 36.9333 90.6367 37.1963C90.4239 37.4612 90.1493 37.6548 89.8128 37.7773C89.4791 37.8987 89.1443 37.9269 88.8083 37.8618C88.4733 37.7995 88.1728 37.6606 87.907 37.445C87.6449 37.2312 87.4526 36.9561 87.3302 36.6196Z" fill="black"/>
<path d="M88 48.6653H94.7618V49.669H93.7405V49.7395C94.0751 49.8627 94.3466 50.0858 94.5549 50.4086C94.7633 50.7314 94.8675 51.0954 94.8675 51.5004C94.8675 51.5767 94.866 51.672 94.8631 51.7865C94.8602 51.901 94.8557 51.9875 94.8499 52.0462H93.7933C93.8021 52.011 93.8154 51.9303 93.833 51.8041C93.8535 51.6809 93.8638 51.5503 93.8638 51.4123C93.8638 51.0836 93.7948 50.7901 93.6569 50.5319C93.5219 50.2765 93.334 50.074 93.0934 49.9244C92.8557 49.7776 92.5842 49.7042 92.279 49.7042H88V48.6653Z" fill="black"/>
<path d="M87.2042 57.0265C87.3173 56.3848 87.5566 55.8563 87.9219 55.4409C88.2895 55.029 88.7513 54.7423 89.3072 54.5811C89.8655 54.4233 90.4857 54.4045 91.1678 54.5247C91.8499 54.645 92.4292 54.8753 92.9056 55.2156C93.3844 55.5593 93.7302 55.9809 93.9431 56.4803C94.1585 56.9832 94.2131 57.5352 94.1071 58.1364C94.0459 58.4832 93.9277 58.8155 93.7525 59.1333C93.5773 59.451 93.3351 59.7257 93.0261 59.9573C92.7199 60.1894 92.3399 60.3504 91.886 60.4402C91.4321 60.53 90.8944 60.5202 90.273 60.4106L89.8395 60.3342L90.7446 55.2011L91.629 55.357L90.9074 59.4496C91.2831 59.5159 91.6316 59.4998 91.9529 59.4015C92.2737 59.3061 92.5436 59.1361 92.7625 58.8916C92.9809 58.65 93.1228 58.3442 93.188 57.9743C93.2599 57.5668 93.2209 57.1963 93.0711 56.863C92.9236 56.533 92.7035 56.2602 92.4107 56.0447C92.1179 55.8292 91.788 55.689 91.4209 55.6243L90.8313 55.5204C90.3284 55.4317 89.8868 55.4432 89.5065 55.555C89.1286 55.6701 88.8211 55.8677 88.584 56.1478C88.3497 56.4283 88.1962 56.7752 88.1233 57.1885C88.0759 57.4573 88.0707 57.7067 88.1076 57.9367C88.1469 58.1702 88.2291 58.3799 88.3543 58.5658C88.4823 58.7523 88.6543 58.9093 88.8702 59.0368L88.4185 59.9763C88.1016 59.8131 87.8376 59.5863 87.6266 59.2958C87.4184 59.0058 87.2754 58.6676 87.1975 58.2814C87.1225 57.8957 87.1247 57.4773 87.2042 57.0265Z" fill="black"/>
<path d="M89.7171 67.3252L89.7881 66.3579C89.9544 66.3559 90.126 66.3263 90.303 66.2689C90.4818 66.2153 90.6498 66.1141 90.8071 65.9652C90.9644 65.8163 91.0947 65.5998 91.1981 65.3157C91.3396 64.9269 91.3679 64.5702 91.283 64.2457C91.1999 63.925 91.0218 63.715 90.7487 63.6156C90.5061 63.5273 90.2823 63.5458 90.0774 63.6711C89.8725 63.7964 89.6549 64.0295 89.4246 64.3704L88.8497 65.2293C88.505 65.7472 88.14 66.0938 87.7545 66.2689C87.3718 66.4451 86.9585 66.4523 86.5145 66.2907C86.1505 66.1582 85.8632 65.935 85.6526 65.621C85.4411 65.3098 85.3204 64.9379 85.2904 64.5054C85.2604 64.0728 85.3353 63.6097 85.515 63.1161C85.7509 62.468 86.0867 61.9828 86.5226 61.6605C86.9585 61.3381 87.4673 61.2188 88.049 61.3025L87.9434 62.3134C87.5693 62.2772 87.2521 62.3507 86.9917 62.5339C86.7304 62.7199 86.527 63.0128 86.3814 63.4127C86.2158 63.8678 86.1808 64.2642 86.2765 64.6019C86.374 64.9435 86.5592 65.1639 86.8322 65.2633C87.0528 65.3436 87.2657 65.3336 87.4709 65.2334C87.6788 65.1342 87.8782 64.9382 88.069 64.6453L88.7027 63.6767C89.0524 63.145 89.4217 62.7953 89.8107 62.6277C90.2013 62.4638 90.6159 62.4617 91.0544 62.6213C91.413 62.7517 91.6935 62.9678 91.896 63.2695C92.0975 63.574 92.2131 63.93 92.2428 64.3374C92.2715 64.7476 92.2046 65.1761 92.042 65.6229C91.8131 66.2517 91.4955 66.6951 91.0893 66.9533C90.682 67.2142 90.2246 67.3382 89.7171 67.3252Z" fill="black"/>
<path d="M84.3574 72.0205L87.8191 74.0191L87.2996 74.9189L81.4437 71.538L81.9631 70.6382L82.9544 71.2105L82.9896 71.1495C82.7715 70.8406 82.6418 70.4811 82.6007 70.071C82.5621 69.6624 82.6705 69.237 82.9258 68.7947C83.1371 68.4287 83.405 68.1496 83.7295 67.9574C84.0565 67.7667 84.4296 67.6839 84.8489 67.709C85.2707 67.7357 85.7306 67.8928 86.2288 68.1804L89.9497 70.3287L89.4303 71.2284L85.7703 69.1153C85.3433 68.8688 84.9338 68.7916 84.5417 68.8838C84.1481 68.9785 83.8435 69.2127 83.6278 69.5863C83.4986 69.81 83.4245 70.0705 83.4053 70.3678C83.3847 70.6677 83.4471 70.9646 83.5925 71.2587C83.7364 71.5553 83.9914 71.8092 84.3574 72.0205Z" fill="black"/>
<path d="M81.879 71.1256L87.0589 75.472L86.4137 76.2409L85.6043 75.5618L85.5477 75.6292C85.7337 75.9692 85.8022 76.3236 85.7532 76.6924C85.7065 77.0632 85.5417 77.4171 85.2587 77.7544C84.9719 78.0961 84.6557 78.3154 84.3101 78.4123C83.9648 78.5133 83.6001 78.5119 83.2161 78.408L83.1708 78.462C83.327 78.8191 83.3725 79.1964 83.3073 79.5937C83.2443 79.9929 83.0572 80.378 82.7459 80.749C82.3573 81.2121 81.8944 81.4692 81.3573 81.5204C80.8224 81.5735 80.2503 81.3444 79.641 80.8331L76.1743 77.9242L76.8421 77.1283L80.3088 80.0373C80.691 80.358 81.0519 80.4826 81.3915 80.4113C81.731 80.3399 82.0197 80.1626 82.2574 79.8793C82.563 79.5151 82.6896 79.1405 82.6371 78.7555C82.587 78.3724 82.3944 78.0404 82.0594 77.7593L78.6871 74.9296L79.3662 74.1202L82.9139 77.0971C83.2084 77.3442 83.5258 77.4477 83.866 77.4075C84.2084 77.3692 84.506 77.1994 84.7588 76.8982C84.9324 76.6913 85.0395 76.4518 85.0803 76.1795C85.1192 75.9094 85.087 75.6373 84.9839 75.363C84.8811 75.0928 84.7026 74.8512 84.4486 74.638L81.2112 71.9215L81.879 71.1256Z" fill="black"/>
<path d="M73.9835 79.297C74.4826 78.8782 75.0056 78.6271 75.5525 78.5437C76.0989 78.4644 76.6369 78.5417 77.1664 78.7755C77.6955 79.0135 78.1827 79.3977 78.6279 79.9283C79.0731 80.4589 79.3688 81.0076 79.5151 81.5745C79.6609 82.1456 79.6549 82.6908 79.4969 83.2103C79.3386 83.7339 79.0257 84.1919 78.558 84.5843C78.2883 84.8107 77.9841 84.9893 77.6456 85.1201C77.3071 85.2508 76.9451 85.3056 76.5595 85.2844C76.1757 85.2654 75.7811 85.1444 75.3757 84.9215C74.9702 84.6985 74.5647 84.3453 74.1591 83.862L73.8761 83.5247L77.869 80.1744L78.4462 80.8623L75.2628 83.5336C75.508 83.8258 75.7853 84.0376 76.0946 84.1688C76.4017 84.3019 76.7177 84.3452 77.0425 84.2986C77.3652 84.2539 77.6704 84.1108 77.9582 83.8694C78.2751 83.6034 78.4834 83.2946 78.5829 82.9429C78.6821 82.5953 78.6888 82.2449 78.603 81.8916C78.5173 81.5383 78.3546 81.2189 78.115 80.9333L77.7302 80.4747C77.4019 80.0835 77.0562 79.8085 76.6931 79.6497C76.3296 79.495 75.967 79.4487 75.6053 79.5108C75.2456 79.5751 74.9049 79.7422 74.5834 80.0119C74.3744 80.1874 74.21 80.3751 74.0905 80.575C73.9705 80.7791 73.8987 80.9926 73.8751 81.2155C73.8533 81.4406 73.8841 81.6714 73.9676 81.9079L73.0176 82.3372C72.8797 82.0085 72.8233 81.6651 72.8484 81.3069C72.8754 80.9509 72.9832 80.6 73.1718 80.254C73.3622 79.9103 73.6328 79.5913 73.9835 79.297Z" fill="black"/>
<path d="M63.3804 87.3302C63.7141 87.2087 64.0484 87.1791 64.3834 87.2415C64.7195 87.3066 65.0204 87.4469 65.2862 87.6625C65.5493 87.879 65.7416 88.1541 65.863 88.4878C65.9855 88.8243 66.0151 89.1587 65.9517 89.4909C65.8866 89.8269 65.7458 90.1265 65.5292 90.3895C65.3137 90.6554 65.0391 90.849 64.7054 90.9705C64.3689 91.093 64.0341 91.1211 63.7008 91.055C63.3658 90.9927 63.0667 90.8533 62.8037 90.6367C62.5388 90.4239 62.3452 90.1493 62.2227 89.8128C62.1013 89.4791 62.0731 89.1443 62.1382 88.8083C62.2005 88.4733 62.3394 88.1728 62.555 87.907C62.7688 87.6449 63.0439 87.4526 63.3804 87.3302Z" fill="black"/>
</svg>
