<?xml version="1.0" standalone="no"?>
<!DOCTYPE svg PUBLIC "-//W3C//DTD SVG 20010904//EN"
 "http://www.w3.org/TR/2001/REC-SVG-20010904/DTD/svg10.dtd">
<svg version="1.0" xmlns="http://www.w3.org/2000/svg"
 width="1184.000000pt" height="1184.000000pt" viewBox="0 0 1184.000000 1184.000000"
 preserveAspectRatio="xMidYMid meet">
<metadata>
Created by potrace 1.14, written by Peter Selinger 2001-2017
</metadata>
<g transform="translate(0.000000,1184.000000) scale(0.100000,-0.100000)"
fill="#000000" stroke="none">
<path d="M3738 11826 c-38 -7 -68 -10 -68 -8 0 3 -7 -1 -15 -8 -8 -7 -15 -10
-15 -7 0 6 -62 -9 -95 -22 -11 -5 -56 -23 -100 -42 -277 -115 -509 -347 -624
-624 -18 -44 -37 -88 -42 -97 -15 -29 -51 -221 -52 -280 -1 -32 -6 -58 -10
-58 -5 0 -6 -4 -3 -9 3 -5 8 -50 11 -101 2 -51 7 -106 10 -123 4 -18 8 -41 10
-52 2 -11 4 -20 5 -20 1 0 4 -13 6 -30 7 -42 71 -209 101 -264 40 -72 106
-171 115 -171 4 0 8 -6 8 -12 0 -17 218 -228 235 -228 8 0 15 -4 15 -8 0 -5
12 -15 28 -23 15 -8 29 -17 32 -20 3 -4 41 -25 85 -47 140 -71 309 -119 446
-126 38 -2 72 -6 75 -9 3 -3 17 -2 30 3 14 6 26 6 29 -1 4 -5 11 -6 17 -3 6 4
33 9 60 10 60 4 223 35 236 44 1 2 7 4 12 5 6 1 12 4 15 5 3 1 8 3 13 4 23 5
115 44 162 69 212 113 374 269 491 472 30 51 47 84 54 105 1 3 7 19 14 35 39
92 58 162 81 300 9 53 7 326 -3 341 -3 5 -8 29 -12 53 -10 66 -62 217 -101
294 -43 84 -57 111 -65 117 -3 3 -19 25 -36 50 -42 61 -138 168 -190 210 -58
48 -131 100 -141 100 -7 0 -12 4 -12 8 0 5 -37 27 -82 49 -88 43 -228 97 -228
87 0 -4 -6 -2 -13 4 -7 7 -34 13 -60 16 -26 3 -52 8 -58 12 -21 12 -301 12
-371 0z"/>
<path d="M8459 10998 c-6 -12 -16 -27 -20 -32 -5 -6 -28 -36 -51 -66 -43 -56
-118 -140 -151 -169 -10 -9 -33 -29 -51 -46 -62 -58 -166 -137 -261 -200 -33
-22 -62 -43 -65 -46 -3 -3 -17 -12 -32 -20 -15 -8 -60 -34 -100 -58 -40 -24
-79 -44 -85 -44 -7 0 -13 -4 -13 -7 0 -9 -301 -160 -318 -160 -7 0 -12 -4 -12
-10 0 -5 -3 -9 -7 -8 -5 1 -34 -10 -66 -25 -32 -15 -60 -27 -62 -27 -2 0 -28
-11 -57 -24 -29 -13 -100 -43 -158 -66 -58 -23 -114 -46 -125 -51 -36 -15
-130 -51 -140 -53 -5 -1 -19 -7 -30 -13 -11 -5 -32 -13 -47 -17 -15 -3 -40
-11 -55 -18 -15 -6 -31 -12 -35 -13 -5 -2 -10 -4 -13 -5 -3 -1 -8 -3 -12 -5
-5 -1 -15 -5 -23 -8 -16 -8 -389 -137 -405 -141 -5 -2 -17 -5 -25 -8 -15 -6
-132 -45 -158 -53 -7 -3 -14 -5 -17 -5 -4 0 -98 -33 -135 -47 -8 -3 -19 -7
-25 -7 -10 -1 -92 -30 -130 -47 -11 -4 -39 -13 -62 -20 -38 -11 -43 -15 -44
-43 -1 -38 0 -949 0 -957 1 -3 209 -5 464 -5 254 1 467 0 472 -1 6 -2 9 -31 8
-66 -4 -139 -15 -1604 -12 -1717 0 -8 -2 -39 -3 -68 -2 -30 0 -56 4 -58 5 -3
5 -11 1 -17 -12 -18 -12 -2570 0 -2584 5 -7 6 -13 1 -13 -5 0 -8 -24 -7 -52 1
-29 2 -53 3 -53 0 0 2 -65 4 -145 2 -80 7 -167 11 -195 8 -52 72 -205 87 -205
4 0 8 -6 8 -14 0 -8 6 -21 13 -28 6 -7 37 -43 67 -78 30 -36 57 -67 61 -70 31
-24 105 -88 118 -101 9 -9 27 -22 40 -29 14 -7 30 -17 35 -21 37 -31 247 -151
261 -150 2 1 24 -8 47 -18 80 -36 139 -59 168 -66 43 -11 129 -38 143 -46 11
-6 21 -8 24 -5 3 2 16 1 30 -5 13 -5 38 -12 56 -15 34 -6 38 -7 77 -18 14 -3
41 -8 60 -10 19 -3 35 -5 35 -6 0 -3 78 -14 185 -26 237 -25 687 -24 814 2 12
2 37 7 56 10 38 6 62 10 100 18 14 3 50 11 80 18 30 6 60 15 65 19 6 4 25 9
43 12 18 3 40 11 49 19 9 7 17 11 17 9 2 -7 77 20 146 52 36 17 67 31 70 32
32 7 278 159 327 202 17 16 48 42 68 58 92 74 234 230 303 331 49 73 80 124
75 124 -3 0 -1 6 5 13 16 19 61 107 55 107 -3 0 -19 -6 -36 -14 -118 -54 -312
-79 -622 -80 -207 -1 -259 5 -364 40 -72 24 -183 77 -207 99 -6 5 -22 17 -35
25 -53 34 -189 180 -242 261 -61 92 -123 219 -152 309 -10 30 -21 64 -26 75
-9 22 -27 114 -32 160 -2 17 -7 36 -11 43 -4 7 -3 12 1 12 10 0 10 61 -1 78
-4 7 -4 12 1 12 4 0 8 16 8 35 0 19 -4 35 -8 35 -5 0 -5 5 -1 12 10 17 11 58
2 64 -5 3 -5 10 -2 16 10 16 11 88 1 88 -4 0 -5 5 -1 12 11 18 11 111 1 126
-6 7 -6 12 0 12 10 0 8 50 -2 77 -2 7 -1 14 4 17 4 3 6 20 4 38 -4 38 -4 33
-1 121 2 38 0 71 -4 74 -5 2 -5 10 -1 16 10 16 10 127 0 127 -5 0 -5 6 0 13
10 16 10 37 1 64 -4 12 -4 24 0 27 5 3 7 20 5 38 -4 39 -4 34 -1 126 2 39 -1
72 -5 72 -5 0 -5 5 -1 12 11 18 11 111 1 126 -5 6 -6 12 -1 12 5 0 8 46 7 102
-2 57 -3 108 -3 113 0 6 1 21 3 35 2 14 -1 31 -6 38 -5 6 -6 12 -1 12 11 0 11
71 1 87 -4 7 -4 14 1 17 4 2 6 31 5 63 -4 74 -4 73 0 103 2 14 -1 31 -6 38 -5
6 -6 12 -1 12 11 0 11 71 1 87 -4 7 -4 14 1 17 4 2 6 31 5 63 -4 74 -4 73 0
103 2 14 -1 31 -6 38 -5 6 -6 12 -1 12 11 0 11 71 1 87 -4 7 -4 14 1 17 4 2 6
31 5 63 -4 74 -4 73 0 103 2 14 -1 31 -6 38 -5 6 -6 12 -1 12 8 0 10 73 4 90
-1 3 -1 10 0 15 7 29 5 85 -3 85 -4 0 -5 5 -1 12 11 18 11 111 1 126 -6 7 -6
12 0 12 10 0 8 50 -2 77 -2 7 -1 14 4 17 4 3 6 20 4 38 -4 38 -4 33 -1 121 2
38 0 71 -4 74 -5 2 -5 10 -1 16 10 16 10 127 0 127 -5 0 -5 6 0 13 10 16 10
37 1 64 -4 12 -4 24 0 27 10 6 8 48 -2 64 -4 7 -4 12 1 12 4 0 8 36 8 80 0 44
-4 80 -8 80 -5 0 -5 6 0 13 4 6 6 19 5 28 -2 9 5 18 15 20 10 3 405 4 878 4
l860 -1 -1 445 c-1 245 -2 448 -3 451 0 3 -394 5 -873 5 l-873 0 1 37 c1 23
-3 35 -9 31 -6 -4 -7 -1 -2 7 10 17 13 120 3 120 -4 0 -4 10 0 23 4 12 7 47 5
77 -4 73 -4 71 0 100 2 14 -1 31 -6 38 -5 6 -6 12 -1 12 8 0 10 73 4 90 -1 3
-1 10 0 15 7 29 5 85 -3 85 -4 0 -5 5 -1 12 11 18 11 111 1 126 -6 7 -6 12 0
12 10 0 8 50 -2 77 -2 7 -1 14 4 17 4 3 6 20 4 38 -4 38 -4 33 -1 121 2 38 0
71 -4 74 -5 2 -5 10 -1 16 10 16 10 127 0 127 -5 0 -5 6 -1 12 10 15 10 101 0
116 -3 6 -2 13 2 16 5 3 7 18 5 33 -2 16 -4 42 -3 58 5 90 4 155 -2 155 -4 0
-13 -10 -19 -22z"/>
<path d="M5100 9354 c-36 -8 -74 -16 -85 -18 -54 -11 -283 -59 -300 -62 -11
-3 -33 -7 -49 -9 -15 -2 -35 -7 -45 -9 -9 -3 -32 -8 -51 -11 -19 -3 -55 -11
-80 -17 -25 -5 -60 -12 -78 -14 -19 -2 -40 -8 -46 -13 -7 -6 -15 -8 -18 -6 -3
3 -27 1 -54 -6 -27 -6 -60 -12 -74 -14 -14 -1 -36 -5 -49 -10 -12 -4 -33 -8
-44 -10 -21 -2 -80 -13 -122 -22 -11 -2 -31 -6 -45 -9 -14 -2 -70 -13 -125
-24 -55 -11 -116 -22 -135 -25 -19 -3 -42 -8 -50 -10 -8 -2 -30 -7 -47 -10
-75 -12 -139 -24 -213 -40 -14 -3 -45 -8 -70 -11 -25 -3 -53 -8 -62 -10 -10
-2 -26 -6 -35 -8 -22 -4 -102 -18 -123 -21 -8 -1 -33 -6 -55 -10 -22 -5 -49
-9 -60 -10 -11 -1 -38 -5 -60 -10 -64 -12 -77 -15 -125 -21 -25 -3 -53 -8 -63
-10 -10 -3 -37 -7 -60 -10 -23 -2 -53 -6 -67 -9 -28 -7 -49 -10 -158 -24 -150
-20 -188 -23 -316 -25 -91 -1 -131 -5 -134 -14 -4 -13 47 -63 86 -83 15 -8 29
-16 32 -19 13 -14 60 -40 60 -33 0 5 4 3 8 -2 4 -6 45 -30 92 -54 131 -65 201
-155 271 -346 12 -33 26 -66 32 -72 5 -7 7 -13 4 -13 -3 0 -1 -15 5 -32 27
-89 60 -206 63 -229 2 -14 10 -53 18 -85 14 -56 26 -115 32 -159 3 -19 9 -52
19 -100 2 -11 7 -42 11 -70 4 -27 9 -59 10 -70 9 -57 17 -113 20 -140 1 -16 3
-30 4 -30 1 0 4 -25 7 -55 3 -30 7 -71 10 -90 2 -19 6 -58 8 -86 2 -29 5 -56
8 -60 2 -5 4 -28 4 -51 -1 -24 1 -43 4 -43 3 0 5 -19 6 -43 0 -23 4 -87 9
-142 18 -238 29 -460 41 -815 8 -249 9 -1225 0 -1525 -11 -425 -20 -652 -31
-820 -2 -44 -7 -119 -10 -167 -3 -49 -7 -116 -10 -150 -3 -35 -7 -94 -10 -133
-3 -38 -7 -88 -9 -110 -2 -22 -7 -74 -10 -115 -4 -41 -9 -91 -11 -110 -5 -41
-15 -129 -21 -185 -5 -59 -15 -134 -23 -186 -4 -26 -7 -58 -6 -73 0 -14 -2
-26 -5 -26 -3 0 -6 -8 -6 -17 -1 -27 -15 -137 -19 -143 -1 -3 -6 -32 -10 -65
-3 -32 -8 -62 -10 -65 -2 -3 -6 -29 -10 -57 -3 -29 -10 -67 -15 -84 -5 -18 -7
-36 -4 -40 3 -5 2 -9 -3 -9 -4 0 -8 -10 -9 -22 -1 -30 -13 -98 -19 -108 -2 -4
-6 -22 -9 -41 -2 -19 -12 -65 -21 -104 -9 -38 -18 -78 -20 -88 -21 -98 -120
-450 -133 -472 -4 -5 -7 -16 -8 -24 -3 -18 -36 -103 -91 -236 -102 -245 -213
-426 -343 -556 l-86 -87 45 15 c25 8 62 19 81 24 19 6 42 13 50 16 8 3 21 7
27 9 13 2 95 31 128 44 82 33 251 94 254 91 2 -1 7 2 11 8 3 6 15 13 26 15 37
8 357 156 362 169 2 4 9 7 16 7 7 0 33 11 57 24 69 37 150 81 194 106 22 13
60 34 85 48 25 14 63 37 85 51 22 15 52 33 67 40 15 8 37 22 47 33 11 10 22
18 25 18 9 0 131 84 134 93 2 4 8 7 13 7 10 0 22 9 57 40 10 8 31 24 47 34 30
20 206 158 235 186 9 8 45 40 79 70 80 69 250 239 316 314 28 32 57 65 65 73
8 9 45 55 83 102 37 47 74 94 82 104 8 9 15 21 15 26 0 5 4 11 8 13 11 4 94
128 159 238 58 97 125 225 167 320 16 36 37 83 47 105 18 39 78 216 118 347
23 75 78 339 85 408 2 25 5 45 6 45 2 0 16 167 24 300 3 44 8 121 11 170 12
202 19 369 30 680 3 83 7 202 9 265 26 703 27 2375 1 3240 -4 126 -9 291 -20
605 -2 72 -6 177 -9 235 -3 58 -8 166 -12 240 -5 123 -13 266 -16 298 -2 15
-14 14 -98 -4z"/>
<path d="M10223 3673 c-3 -10 -8 -22 -10 -28 -3 -5 3 -1 11 9 16 20 21 36 11
36 -3 0 -8 -8 -12 -17z"/>
<path d="M1798 55 c-27 -7 -48 -11 -48 -8 0 3 -6 0 -13 -6 -8 -6 -33 -13 -57
-16 -74 -10 -82 -24 -10 -21 72 4 96 9 106 19 4 4 13 7 20 7 8 0 28 9 46 20
37 23 24 24 -44 5z"/>
</g>
</svg>
